<svg xmlns="http://www.w3.org/2000/svg" xmlns:xlink="http://www.w3.org/1999/xlink" width="90" zoomAndPan="magnify" viewBox="0 0 67.5 67.499996" height="90" preserveAspectRatio="xMidYMid meet" version="1.2"><defs><clipPath id="b98119b887"><path d="M 7.230469 5.386719 L 60 5.386719 L 60 61.96875 L 7.230469 61.96875 Z M 7.230469 5.386719 "/></clipPath></defs><g id="6a963972ee"><g clip-rule="nonzero" clip-path="url(#b98119b887)"><path style=" stroke:none;fill-rule:nonzero;fill:#051052;fill-opacity:1;" d="M 58.925781 12.441406 L 46.835938 12.441406 L 50.695312 8.085938 L 50.695312 10.65625 C 50.695312 10.871094 50.773438 11.054688 50.925781 11.207031 C 51.074219 11.359375 51.257812 11.433594 51.472656 11.433594 C 51.6875 11.433594 51.871094 11.359375 52.023438 11.207031 C 52.175781 11.054688 52.25 10.871094 52.25 10.65625 L 52.25 6.191406 C 52.25 5.976562 52.175781 5.792969 52.023438 5.640625 C 51.871094 5.488281 51.6875 5.414062 51.472656 5.414062 L 46.617188 5.414062 C 46.402344 5.414062 46.21875 5.488281 46.066406 5.640625 C 45.914062 5.792969 45.839844 5.976562 45.839844 6.191406 C 45.839844 6.40625 45.914062 6.589844 46.066406 6.742188 C 46.21875 6.890625 46.402344 6.96875 46.617188 6.96875 L 49.632812 6.96875 L 33.464844 25.101562 L 26.996094 20.5625 C 26.824219 20.445312 26.632812 20.402344 26.425781 20.433594 C 26.21875 20.46875 26.050781 20.570312 25.925781 20.738281 L 18.519531 30.742188 C 18.394531 30.914062 18.347656 31.105469 18.378906 31.316406 C 18.410156 31.527344 18.511719 31.699219 18.679688 31.824219 C 18.851562 31.957031 19.046875 32.003906 19.257812 31.972656 C 19.472656 31.941406 19.640625 31.839844 19.769531 31.664062 L 26.726562 22.285156 L 33.144531 26.78125 C 33.308594 26.894531 33.484375 26.941406 33.683594 26.917969 C 33.878906 26.894531 34.042969 26.8125 34.171875 26.664062 L 45.453125 13.996094 L 54.945312 13.996094 L 54.945312 42.019531 L 51.210938 42.019531 L 51.210938 20.710938 C 51.210938 20.492188 51.132812 20.308594 50.972656 20.15625 C 50.816406 20.007812 50.628906 19.933594 50.410156 19.941406 L 46.1875 19.941406 C 45.972656 19.941406 45.789062 20.015625 45.636719 20.167969 C 45.484375 20.320312 45.410156 20.503906 45.410156 20.71875 L 45.410156 42.019531 L 42.371094 42.019531 L 42.371094 33.871094 C 42.371094 33.65625 42.292969 33.472656 42.140625 33.320312 C 41.988281 33.171875 41.804688 33.09375 41.589844 33.09375 L 37.367188 33.09375 C 37.15625 33.09375 36.972656 33.171875 36.820312 33.320312 C 36.667969 33.472656 36.589844 33.65625 36.589844 33.871094 L 36.589844 42.019531 L 33.550781 42.019531 L 33.550781 31.445312 C 33.550781 31.230469 33.476562 31.046875 33.324219 30.898438 C 33.171875 30.746094 32.988281 30.667969 32.773438 30.667969 L 28.554688 30.667969 C 28.339844 30.667969 28.15625 30.742188 28.003906 30.894531 C 27.851562 31.046875 27.777344 31.230469 27.777344 31.445312 L 27.777344 42.019531 L 24.730469 42.019531 L 24.730469 37.480469 C 24.726562 37.269531 24.644531 37.09375 24.496094 36.949219 C 24.34375 36.800781 24.164062 36.730469 23.953125 36.734375 L 19.738281 36.734375 C 19.527344 36.730469 19.34375 36.800781 19.191406 36.945312 C 19.039062 37.089844 18.957031 37.269531 18.949219 37.480469 L 18.949219 42.019531 L 12.0625 42.019531 L 12.0625 37.417969 L 15.117188 37.417969 C 15.332031 37.417969 15.515625 37.339844 15.667969 37.1875 C 15.820312 37.035156 15.894531 36.855469 15.894531 36.640625 C 15.894531 36.425781 15.820312 36.242188 15.667969 36.089844 C 15.515625 35.9375 15.332031 35.863281 15.117188 35.863281 L 12.0625 35.863281 L 12.0625 28.679688 L 15.117188 28.679688 C 15.332031 28.679688 15.515625 28.601562 15.667969 28.449219 C 15.820312 28.300781 15.894531 28.117188 15.894531 27.902344 C 15.894531 27.6875 15.820312 27.503906 15.667969 27.351562 C 15.515625 27.199219 15.332031 27.125 15.117188 27.125 L 12.0625 27.125 L 12.0625 19.941406 L 15.117188 19.941406 C 15.332031 19.941406 15.515625 19.863281 15.667969 19.714844 C 15.820312 19.5625 15.894531 19.378906 15.894531 19.164062 C 15.894531 18.949219 15.820312 18.765625 15.667969 18.613281 C 15.515625 18.460938 15.332031 18.386719 15.117188 18.386719 L 12.0625 18.386719 L 12.0625 14.03125 L 40.8125 14.03125 C 41.027344 14.03125 41.210938 13.957031 41.363281 13.804688 C 41.515625 13.652344 41.589844 13.46875 41.589844 13.253906 C 41.589844 13.039062 41.515625 12.859375 41.363281 12.707031 C 41.210938 12.554688 41.027344 12.476562 40.8125 12.476562 L 34.277344 12.476562 L 34.277344 9.367188 C 34.277344 9.152344 34.203125 8.972656 34.050781 8.820312 C 33.898438 8.667969 33.714844 8.589844 33.5 8.589844 C 33.285156 8.589844 33.101562 8.667969 32.949219 8.820312 C 32.800781 8.972656 32.722656 9.152344 32.722656 9.367188 L 32.722656 12.476562 L 8.078125 12.476562 C 7.863281 12.476562 7.679688 12.554688 7.527344 12.707031 C 7.375 12.859375 7.300781 13.039062 7.300781 13.253906 C 7.300781 13.46875 7.375 13.652344 7.527344 13.804688 C 7.679688 13.957031 7.863281 14.03125 8.078125 14.03125 L 10.507812 14.03125 L 10.507812 42.796875 C 10.507812 43.011719 10.585938 43.195312 10.738281 43.347656 C 10.886719 43.496094 11.070312 43.574219 11.285156 43.574219 L 21.746094 43.574219 L 14.988281 60.363281 C 14.90625 60.5625 14.90625 60.761719 14.992188 60.960938 C 15.074219 61.160156 15.214844 61.296875 15.414062 61.378906 C 15.511719 61.414062 15.605469 61.433594 15.707031 61.433594 C 16.0625 61.457031 16.3125 61.308594 16.460938 60.988281 L 18.949219 54.824219 L 32.761719 50.378906 L 32.761719 54.949219 C 32.761719 55.164062 32.835938 55.347656 32.988281 55.496094 C 33.140625 55.648438 33.324219 55.726562 33.539062 55.726562 C 33.753906 55.726562 33.9375 55.648438 34.085938 55.496094 C 34.238281 55.347656 34.316406 55.164062 34.316406 54.949219 L 34.316406 50.347656 L 48.140625 54.8125 L 50.628906 60.957031 C 50.648438 61.074219 50.691406 61.183594 50.757812 61.28125 C 50.828125 61.378906 50.914062 61.457031 51.019531 61.515625 C 51.125 61.574219 51.234375 61.605469 51.355469 61.613281 C 51.476562 61.617188 51.589844 61.597656 51.699219 61.550781 C 51.8125 61.503906 51.90625 61.433594 51.984375 61.34375 C 52.0625 61.253906 52.117188 61.148438 52.148438 61.035156 C 52.179688 60.917969 52.183594 60.800781 52.160156 60.683594 C 52.136719 60.566406 52.085938 60.460938 52.015625 60.363281 L 45.253906 43.574219 L 55.722656 43.574219 C 55.9375 43.574219 56.121094 43.496094 56.269531 43.347656 C 56.421875 43.195312 56.5 43.011719 56.5 42.796875 L 56.5 13.996094 L 58.925781 13.996094 C 59.140625 13.996094 59.320312 13.917969 59.472656 13.769531 C 59.625 13.617188 59.703125 13.433594 59.703125 13.21875 C 59.703125 13.003906 59.625 12.820312 59.472656 12.667969 C 59.320312 12.515625 59.140625 12.441406 58.925781 12.441406 Z M 32.722656 48.710938 L 19.664062 52.9375 L 23.425781 43.574219 L 32.753906 43.574219 Z M 47.351562 52.9375 L 34.289062 48.710938 L 34.289062 43.574219 L 43.621094 43.574219 Z M 47.351562 52.9375 "/></g></g></svg>