<svg xmlns="http://www.w3.org/2000/svg" xmlns:xlink="http://www.w3.org/1999/xlink" width="133" zoomAndPan="magnify" viewBox="0 0 99.75 95.999999" height="128" preserveAspectRatio="xMidYMid meet"><defs><clipPath id="22e10f3a91"><path d="M 42 64 L 76 64 L 76 95.878906 L 42 95.878906 Z M 42 64 "></path></clipPath><clipPath id="7f5d5b5340"><path d="M 84 36 L 99.5 36 L 99.5 95.878906 L 84 95.878906 Z M 84 36 "></path></clipPath><clipPath id="674cce92de"><path d="M 64 10 L 83 10 L 83 95.878906 L 64 95.878906 Z M 64 10 "></path></clipPath><clipPath id="0b4533975a"><path d="M 28 24 L 49 24 L 49 95.878906 L 28 95.878906 Z M 28 24 "></path></clipPath><clipPath id="af6f3080f0"><path d="M 10 45 L 33 45 L 33 95.878906 L 10 95.878906 Z M 10 45 "></path></clipPath><clipPath id="9af730608a"><path d="M 0 0.121094 L 26 0.121094 L 26 95.878906 L 0 95.878906 Z M 0 0.121094 "></path></clipPath></defs><g id="ce760a4f16"><g clip-rule="nonzero" clip-path="url(#22e10f3a91)"><path style=" stroke:none;fill-rule:nonzero;fill:#051052;fill-opacity:1;" d="M 42.203125 95.605469 L 42.203125 64.132812 L 75.601562 64.132812 L 75.601562 95.605469 L 67.25 95.605469 L 67.25 72.34375 L 50.554688 72.34375 L 50.554688 95.605469 L 42.203125 95.605469 "></path></g><g clip-rule="nonzero" clip-path="url(#7f5d5b5340)"><path style=" stroke:none;fill-rule:nonzero;fill:#051052;fill-opacity:1;" d="M 93.65625 53.765625 L 89.480469 53.765625 C 88.941406 53.765625 88.507812 53.332031 88.507812 52.800781 C 88.507812 52.261719 88.941406 51.828125 89.480469 51.828125 L 93.65625 51.828125 C 94.191406 51.828125 94.625 52.261719 94.625 52.800781 C 94.625 53.332031 94.191406 53.765625 93.65625 53.765625 Z M 93.65625 62.226562 L 89.480469 62.226562 C 88.941406 62.226562 88.507812 61.792969 88.507812 61.261719 C 88.507812 60.726562 88.941406 60.292969 89.480469 60.292969 L 93.65625 60.292969 C 94.191406 60.292969 94.625 60.726562 94.625 61.261719 C 94.625 61.792969 94.191406 62.226562 93.65625 62.226562 Z M 93.65625 70.691406 L 89.480469 70.691406 C 88.941406 70.691406 88.507812 70.261719 88.507812 69.722656 C 88.507812 69.1875 88.941406 68.753906 89.480469 68.753906 L 93.65625 68.753906 C 94.191406 68.753906 94.625 69.1875 94.625 69.722656 C 94.625 70.261719 94.191406 70.691406 93.65625 70.691406 Z M 93.65625 79.15625 L 89.480469 79.15625 C 88.941406 79.15625 88.507812 78.722656 88.507812 78.1875 C 88.507812 77.652344 88.941406 77.21875 89.480469 77.21875 L 93.65625 77.21875 C 94.191406 77.21875 94.625 77.652344 94.625 78.1875 C 94.625 78.722656 94.191406 79.15625 93.65625 79.15625 Z M 93.65625 87.621094 L 89.480469 87.621094 C 88.941406 87.621094 88.507812 87.183594 88.507812 86.648438 C 88.507812 86.113281 88.941406 85.679688 89.480469 85.679688 L 93.65625 85.679688 C 94.191406 85.679688 94.625 86.113281 94.625 86.648438 C 94.625 87.183594 94.191406 87.621094 93.65625 87.621094 Z M 89.660156 36.5625 L 84.988281 42.027344 L 84.988281 95.605469 L 99.242188 95.605469 L 99.242188 51.34375 L 89.660156 36.5625 "></path></g><g clip-rule="nonzero" clip-path="url(#674cce92de)"><path style=" stroke:none;fill-rule:nonzero;fill:#051052;fill-opacity:1;" d="M 75.601562 37.804688 L 71.421875 37.804688 C 70.890625 37.804688 70.457031 37.371094 70.457031 36.832031 C 70.457031 36.300781 70.890625 35.867188 71.421875 35.867188 L 75.601562 35.867188 C 76.132812 35.867188 76.566406 36.300781 76.566406 36.832031 C 76.566406 37.371094 76.132812 37.804688 75.601562 37.804688 Z M 75.601562 46.265625 L 71.421875 46.265625 C 70.890625 46.265625 70.457031 45.832031 70.457031 45.296875 C 70.457031 44.765625 70.890625 44.332031 71.421875 44.332031 L 75.601562 44.332031 C 76.132812 44.332031 76.566406 44.765625 76.566406 45.296875 C 76.566406 45.832031 76.132812 46.265625 75.601562 46.265625 Z M 75.601562 54.726562 L 71.421875 54.726562 C 70.890625 54.726562 70.457031 54.292969 70.457031 53.757812 C 70.457031 53.226562 70.890625 52.792969 71.421875 52.792969 L 75.601562 52.792969 C 76.132812 52.792969 76.566406 53.226562 76.566406 53.757812 C 76.566406 54.292969 76.132812 54.726562 75.601562 54.726562 Z M 70.09375 10.261719 L 70.09375 29.164062 L 64.613281 29.164062 L 64.613281 61.546875 L 78.179688 61.546875 L 78.179688 95.605469 L 82.40625 95.605469 L 82.40625 10.261719 L 70.09375 10.261719 "></path></g><g clip-rule="nonzero" clip-path="url(#0b4533975a)"><path style=" stroke:none;fill-rule:nonzero;fill:#051052;fill-opacity:1;" d="M 40.753906 33.300781 L 36.578125 33.300781 C 36.042969 33.300781 35.609375 32.867188 35.609375 32.332031 C 35.609375 31.796875 36.042969 31.363281 36.578125 31.363281 L 40.753906 31.363281 C 41.285156 31.363281 41.71875 31.796875 41.71875 32.332031 C 41.71875 32.867188 41.285156 33.300781 40.753906 33.300781 Z M 40.753906 38.773438 L 36.578125 38.773438 C 36.042969 38.773438 35.609375 38.339844 35.609375 37.804688 C 35.609375 37.265625 36.042969 36.832031 36.578125 36.832031 L 40.753906 36.832031 C 41.285156 36.832031 41.71875 37.265625 41.71875 37.804688 C 41.71875 38.339844 41.285156 38.773438 40.753906 38.773438 Z M 28.464844 24.515625 L 28.46875 42.464844 L 35.035156 42.464844 L 35.035156 95.605469 L 39.621094 95.605469 L 39.621094 61.546875 L 48.46875 61.546875 L 48.46875 24.515625 L 28.464844 24.515625 "></path></g><g clip-rule="nonzero" clip-path="url(#af6f3080f0)"><path style=" stroke:none;fill-rule:nonzero;fill:#051052;fill-opacity:1;" d="M 25.0625 62.226562 L 20.886719 62.226562 C 20.351562 62.226562 19.917969 61.792969 19.917969 61.261719 C 19.917969 60.726562 20.351562 60.292969 20.886719 60.292969 L 25.0625 60.292969 C 25.59375 60.292969 26.03125 60.726562 26.03125 61.261719 C 26.03125 61.792969 25.59375 62.226562 25.0625 62.226562 Z M 25.0625 70.691406 L 20.886719 70.691406 C 20.351562 70.691406 19.917969 70.261719 19.917969 69.722656 C 19.917969 69.1875 20.351562 68.753906 20.886719 68.753906 L 25.0625 68.753906 C 25.59375 68.753906 26.03125 69.1875 26.03125 69.722656 C 26.03125 70.261719 25.59375 70.691406 25.0625 70.691406 Z M 25.0625 79.15625 L 20.886719 79.15625 C 20.351562 79.15625 19.917969 78.722656 19.917969 78.1875 C 19.917969 77.652344 20.351562 77.21875 20.886719 77.21875 L 25.0625 77.21875 C 25.59375 77.21875 26.03125 77.652344 26.03125 78.1875 C 26.03125 78.722656 25.59375 79.15625 25.0625 79.15625 Z M 25.0625 87.910156 L 20.886719 87.910156 C 20.351562 87.910156 19.917969 87.476562 19.917969 86.941406 C 19.917969 86.40625 20.351562 85.972656 20.886719 85.972656 L 25.0625 85.972656 C 25.59375 85.972656 26.03125 86.40625 26.03125 86.941406 C 26.03125 87.476562 25.59375 87.910156 25.0625 87.910156 Z M 20.542969 45.046875 C 20.542969 45.046875 4.121094 68.542969 13.566406 95.605469 L 32.453125 95.605469 L 32.453125 45.046875 L 20.542969 45.046875 "></path></g><g clip-rule="nonzero" clip-path="url(#9af730608a)"><path style=" stroke:none;fill-rule:nonzero;fill:#051052;fill-opacity:1;" d="M 15.382812 15.109375 L 11.203125 15.109375 C 10.671875 15.109375 10.238281 14.675781 10.238281 14.140625 C 10.238281 13.605469 10.671875 13.171875 11.203125 13.171875 L 15.382812 13.171875 C 15.914062 13.171875 16.347656 13.605469 16.347656 14.140625 C 16.347656 14.675781 15.914062 15.109375 15.382812 15.109375 Z M 15.382812 23.574219 L 11.203125 23.574219 C 10.671875 23.574219 10.238281 23.140625 10.238281 22.601562 C 10.238281 22.066406 10.671875 21.632812 11.203125 21.632812 L 15.382812 21.632812 C 15.914062 21.632812 16.347656 22.066406 16.347656 22.601562 C 16.347656 23.140625 15.914062 23.574219 15.382812 23.574219 Z M 15.382812 32.035156 L 11.203125 32.035156 C 10.671875 32.035156 10.238281 31.601562 10.238281 31.066406 C 10.238281 30.53125 10.671875 30.097656 11.203125 30.097656 L 15.382812 30.097656 C 15.914062 30.097656 16.347656 30.53125 16.347656 31.066406 C 16.347656 31.601562 15.914062 32.035156 15.382812 32.035156 Z M 15.382812 40.386719 L 11.203125 40.386719 C 10.671875 40.386719 10.238281 39.953125 10.238281 39.417969 C 10.238281 38.882812 10.671875 38.449219 11.203125 38.449219 L 15.382812 38.449219 C 15.914062 38.449219 16.347656 38.882812 16.347656 39.417969 C 16.347656 39.953125 15.914062 40.386719 15.382812 40.386719 Z M 20.351562 2.613281 C 18.367188 0.992188 15.851562 0.160156 13.289062 0.160156 L 12.746094 0.160156 C 10.183594 0.160156 7.671875 0.992188 5.6875 2.613281 C 0.339844 6.976562 0.152344 12.886719 0.152344 12.886719 L 0.152344 95.605469 L 10.839844 95.605469 C 1.695312 67.984375 17.734375 44.5625 18.429688 43.566406 L 19.203125 42.464844 L 25.882812 42.464844 L 25.882812 12.886719 C 25.882812 12.886719 25.695312 6.976562 20.351562 2.613281 "></path></g></g></svg>