<svg xmlns="http://www.w3.org/2000/svg" xmlns:xlink="http://www.w3.org/1999/xlink" width="90" zoomAndPan="magnify" viewBox="0 0 67.5 67.499996" height="90" preserveAspectRatio="xMidYMid meet" version="1.2"><defs><clipPath id="ee585b5acc"><path d="M 6.691406 7.765625 L 60.292969 7.765625 L 60.292969 59.132812 L 6.691406 59.132812 Z M 6.691406 7.765625 "/></clipPath></defs><g id="68329305a3"><g clip-rule="nonzero" clip-path="url(#ee585b5acc)"><path style=" stroke:none;fill-rule:nonzero;fill:#051052;fill-opacity:1;" d="M 60.109375 58.398438 L 57.519531 53.179688 C 57.539062 53.039062 57.550781 52.902344 57.550781 52.773438 L 57.550781 44.488281 C 57.550781 43.675781 57.222656 42.9375 56.695312 42.398438 L 56.695312 31.03125 C 56.695312 28.742188 54.832031 26.878906 52.539062 26.878906 L 38.097656 26.878906 L 38.097656 16.464844 C 38.097656 14.171875 36.234375 12.308594 33.945312 12.308594 L 24.570312 12.308594 L 24.570312 10.898438 C 24.570312 9.246094 23.230469 7.90625 21.578125 7.90625 L 12.332031 7.90625 C 10.683594 7.90625 9.339844 9.246094 9.339844 10.898438 L 9.339844 19.183594 C 9.339844 19.3125 9.351562 19.445312 9.371094 19.589844 L 6.777344 24.808594 C 6.699219 24.972656 6.730469 25.167969 6.859375 25.296875 C 6.941406 25.378906 7.046875 25.421875 7.160156 25.421875 C 7.222656 25.421875 7.285156 25.40625 7.347656 25.378906 L 10.195312 23.96875 L 10.195312 32.816406 C 10.195312 35.109375 12.058594 36.972656 14.351562 36.972656 L 30.011719 36.972656 L 30.011719 47.382812 C 30.011719 49.675781 31.875 51.539062 34.167969 51.539062 L 42.320312 51.539062 L 42.320312 52.773438 C 42.320312 54.425781 43.660156 55.765625 45.3125 55.765625 L 53.074219 55.765625 L 59.542969 58.96875 C 59.601562 58.996094 59.667969 59.011719 59.730469 59.011719 C 59.839844 59.011719 59.949219 58.96875 60.03125 58.886719 C 60.160156 58.757812 60.191406 58.5625 60.109375 58.398438 Z M 10.191406 19.84375 C 10.230469 19.761719 10.246094 19.667969 10.230469 19.578125 C 10.203125 19.433594 10.1875 19.304688 10.1875 19.183594 L 10.1875 10.898438 C 10.1875 9.714844 11.152344 8.753906 12.332031 8.753906 L 21.578125 8.753906 C 22.761719 8.753906 23.722656 9.714844 23.722656 10.898438 L 23.722656 19.183594 C 23.722656 20.367188 22.761719 21.328125 21.578125 21.328125 L 13.71875 21.328125 C 13.652344 21.328125 13.585938 21.34375 13.53125 21.371094 L 8.097656 24.058594 Z M 14.351562 36.125 C 12.527344 36.125 11.042969 34.640625 11.042969 32.816406 L 11.042969 23.550781 L 13.816406 22.175781 L 21.578125 22.175781 C 23.230469 22.175781 24.570312 20.835938 24.570312 19.183594 L 24.570312 13.15625 L 33.945312 13.15625 C 35.769531 13.15625 37.25 14.640625 37.25 16.464844 L 37.25 26.878906 L 34.167969 26.878906 C 31.875 26.878906 30.011719 28.742188 30.011719 31.035156 L 30.011719 36.125 Z M 34.167969 50.691406 C 32.34375 50.691406 30.859375 49.207031 30.859375 47.382812 L 30.859375 31.03125 C 30.859375 29.207031 32.34375 27.726562 34.167969 27.726562 L 52.539062 27.726562 C 54.363281 27.726562 55.847656 29.207031 55.847656 31.03125 L 55.847656 41.792969 C 55.457031 41.601562 55.019531 41.496094 54.554688 41.496094 L 45.3125 41.496094 C 43.660156 41.496094 42.320312 42.835938 42.320312 44.488281 L 42.320312 50.691406 Z M 53.359375 54.960938 C 53.300781 54.933594 53.238281 54.917969 53.171875 54.917969 L 45.3125 54.917969 C 44.128906 54.917969 43.167969 53.957031 43.167969 52.773438 L 43.167969 44.488281 C 43.167969 43.304688 44.128906 42.34375 45.3125 42.34375 L 54.558594 42.34375 C 55.738281 42.34375 56.703125 43.304688 56.703125 44.488281 L 56.703125 52.773438 C 56.703125 52.894531 56.6875 53.023438 56.660156 53.167969 C 56.644531 53.257812 56.65625 53.351562 56.699219 53.433594 L 58.792969 57.648438 Z M 53.359375 54.960938 "/></g><path style=" stroke:none;fill-rule:nonzero;fill:#051052;fill-opacity:1;" d="M 35.171875 34.46875 L 52.425781 34.46875 C 52.660156 34.46875 52.851562 34.28125 52.851562 34.046875 C 52.851562 33.8125 52.660156 33.621094 52.425781 33.621094 L 35.171875 33.621094 C 34.9375 33.621094 34.746094 33.8125 34.746094 34.046875 C 34.746094 34.28125 34.9375 34.46875 35.171875 34.46875 Z M 35.171875 34.46875 "/><path style=" stroke:none;fill-rule:nonzero;fill:#051052;fill-opacity:1;" d="M 47.632812 39.386719 C 47.863281 39.386719 48.054688 39.203125 48.058594 38.96875 C 48.0625 38.734375 47.875 38.542969 47.640625 38.539062 L 35.179688 38.324219 C 34.929688 38.320312 34.753906 38.503906 34.746094 38.738281 C 34.746094 38.972656 34.929688 39.167969 35.164062 39.171875 L 47.625 39.386719 C 47.628906 39.386719 47.632812 39.386719 47.632812 39.386719 Z M 47.632812 39.386719 "/><path style=" stroke:none;fill-rule:nonzero;fill:#051052;fill-opacity:1;" d="M 54.574219 45.347656 L 50.726562 45.347656 L 50.726562 43.320312 C 50.726562 43.085938 50.535156 42.898438 50.300781 42.898438 C 50.066406 42.898438 49.878906 43.085938 49.878906 43.320312 L 49.878906 45.347656 L 46.1875 45.347656 C 45.957031 45.347656 45.765625 45.535156 45.765625 45.769531 C 45.765625 46.007812 45.957031 46.195312 46.1875 46.195312 L 52.0625 46.195312 C 51.8125 47.789062 51.261719 49.121094 50.402344 50.195312 C 49.652344 49.375 49.070312 48.394531 48.660156 47.21875 C 48.582031 47 48.339844 46.882812 48.121094 46.960938 C 47.898438 47.035156 47.78125 47.277344 47.859375 47.5 C 48.3125 48.796875 48.976562 49.902344 49.832031 50.816406 C 48.929688 51.707031 47.769531 52.386719 46.335938 52.863281 C 46.117188 52.9375 45.996094 53.175781 46.070312 53.398438 C 46.128906 53.578125 46.292969 53.691406 46.472656 53.691406 C 46.515625 53.691406 46.5625 53.683594 46.605469 53.667969 C 48.164062 53.148438 49.4375 52.390625 50.4375 51.402344 C 51.296875 52.160156 52.3125 52.765625 53.496094 53.199219 C 53.546875 53.214844 53.59375 53.222656 53.640625 53.222656 C 53.816406 53.222656 53.976562 53.117188 54.039062 52.945312 C 54.121094 52.722656 54.007812 52.480469 53.785156 52.398438 C 52.699219 52.003906 51.78125 51.464844 51.003906 50.785156 C 52.011719 49.550781 52.648438 48.019531 52.921875 46.195312 L 54.574219 46.195312 C 54.808594 46.195312 54.996094 46.007812 54.996094 45.773438 C 54.996094 45.539062 54.808594 45.347656 54.574219 45.347656 Z M 54.574219 45.347656 "/><path style=" stroke:none;fill-rule:nonzero;fill:#051052;fill-opacity:1;" d="M 13.996094 19.425781 L 14.8125 17.3125 L 19.316406 17.3125 L 20.132812 19.425781 C 20.195312 19.59375 20.355469 19.695312 20.527344 19.695312 C 20.578125 19.695312 20.628906 19.6875 20.679688 19.667969 C 20.898438 19.582031 21.007812 19.335938 20.921875 19.117188 L 17.460938 10.148438 C 17.394531 9.984375 17.238281 9.878906 17.0625 9.878906 C 16.886719 9.878906 16.730469 9.984375 16.667969 10.148438 L 14.128906 16.722656 C 14.128906 16.722656 14.128906 16.722656 14.128906 16.726562 L 13.203125 19.117188 C 13.121094 19.335938 13.226562 19.582031 13.445312 19.667969 C 13.664062 19.75 13.910156 19.644531 13.996094 19.425781 Z M 17.0625 11.480469 L 18.988281 16.464844 L 15.136719 16.464844 Z M 17.0625 11.480469 "/><path style=" stroke:none;fill-rule:nonzero;fill:#051052;fill-opacity:1;" d="M 26.289062 20.839844 L 33.734375 20.839844 C 33.964844 20.839844 34.15625 20.648438 34.15625 20.414062 C 34.15625 20.179688 33.964844 19.992188 33.734375 19.992188 L 26.289062 19.992188 C 26.054688 19.992188 25.863281 20.179688 25.863281 20.414062 C 25.863281 20.648438 26.054688 20.839844 26.289062 20.839844 Z M 26.289062 20.839844 "/><path style=" stroke:none;fill-rule:nonzero;fill:#051052;fill-opacity:1;" d="M 15.039062 24.898438 L 33.734375 24.898438 C 33.964844 24.898438 34.15625 24.707031 34.15625 24.472656 C 34.15625 24.238281 33.964844 24.050781 33.734375 24.050781 L 15.039062 24.050781 C 14.808594 24.050781 14.617188 24.238281 14.617188 24.472656 C 14.617188 24.707031 14.804688 24.898438 15.039062 24.898438 Z M 15.039062 24.898438 "/><path style=" stroke:none;fill-rule:nonzero;fill:#051052;fill-opacity:1;" d="M 25.429688 27.636719 L 15.039062 27.636719 C 14.808594 27.636719 14.617188 27.828125 14.617188 28.0625 C 14.617188 28.296875 14.808594 28.484375 15.039062 28.484375 L 25.429688 28.484375 C 25.664062 28.484375 25.855469 28.296875 25.855469 28.0625 C 25.855469 27.828125 25.664062 27.636719 25.429688 27.636719 Z M 25.429688 27.636719 "/></g></svg>