<svg xmlns="http://www.w3.org/2000/svg" xmlns:xlink="http://www.w3.org/1999/xlink" width="90" zoomAndPan="magnify" viewBox="0 0 67.5 67.499996" height="90" preserveAspectRatio="xMidYMid meet" version="1.2"><defs><clipPath id="69906f777b"><path d="M 4.003906 5.292969 L 62.816406 5.292969 L 62.816406 61.875 L 4.003906 61.875 Z M 4.003906 5.292969 "/></clipPath></defs><g id="6cc4c039bc"><g clip-rule="nonzero" clip-path="url(#69906f777b)"><path style=" stroke:none;fill-rule:nonzero;fill:#051052;fill-opacity:1;" d="M 26.515625 5.34375 C 14.292969 5.34375 4.128906 14.226562 4.128906 25.394531 C 4.128906 30.757812 6.527344 35.625 10.328125 39.21875 L 10.210938 39.808594 C 9.351562 42.320312 7.246094 43.738281 5.996094 44.191406 C 5.265625 44.453125 4.664062 44.84375 4.328125 45.535156 C 4 46.214844 4.199219 47.164062 4.699219 47.65625 C 5.863281 48.828125 7.378906 48.710938 8.484375 48.722656 C 12.648438 48.773438 17.550781 46.589844 20.519531 45.105469 L 20.554688 45.089844 L 21.574219 44.5 L 21.183594 44.382812 L 21.230469 44.390625 C 22.882812 44.777344 24.617188 44.894531 26.324219 44.894531 C 37.070312 44.894531 46.320312 38.472656 48.363281 29.226562 L 48.363281 29.222656 C 48.640625 27.992188 48.785156 26.710938 48.785156 25.394531 C 48.785156 14.234375 38.742188 5.34375 26.515625 5.34375 Z M 26.515625 7.898438 C 37.511719 7.898438 46.230469 15.769531 46.230469 25.394531 C 46.230469 26.527344 46.105469 27.621094 45.871094 28.671875 C 44.128906 36.566406 36.058594 42.34375 26.324219 42.34375 C 24.746094 42.34375 23.199219 42.222656 21.8125 41.90625 L 21.253906 41.742188 L 19.363281 42.828125 C 16.542969 44.238281 11.679688 46.210938 8.515625 46.171875 C 8.082031 46.171875 8.042969 46.085938 7.738281 46.050781 C 9.550781 45.164062 11.644531 43.554688 12.640625 40.59375 L 12.664062 40.53125 L 13.121094 38.375 L 12.558594 37.878906 C 8.90625 34.683594 6.683594 30.253906 6.683594 25.394531 C 6.683594 15.78125 15.523438 7.898438 26.515625 7.898438 Z M 15.613281 16.828125 L 15.613281 19.378906 L 37.300781 19.378906 L 37.300781 16.828125 Z M 15.613281 23.207031 L 15.613281 25.757812 L 37.300781 25.757812 L 37.300781 23.207031 Z M 51.0625 28.558594 C 50.996094 28.96875 50.953125 29.375 50.863281 29.78125 C 50.761719 30.21875 50.632812 30.648438 50.503906 31.082031 C 56.378906 33.347656 60.246094 37.917969 60.246094 42.996094 C 60.246094 46.640625 58.351562 50.042969 54.902344 52.589844 L 54.210938 53.101562 L 54.425781 53.941406 C 55.113281 56.578125 57.523438 57.9375 59.195312 58.84375 C 56.546875 59.203125 50.796875 58.605469 47.90625 55.1875 L 47.421875 54.609375 L 46.683594 54.757812 C 45.523438 54.988281 44.179688 55.101562 42.5625 55.101562 C 34.628906 55.101562 28.1875 52.027344 25.679688 47.425781 C 24.644531 47.40625 23.675781 47.335938 22.769531 47.226562 C 25.136719 53.496094 32.746094 57.652344 42.5625 57.652344 C 44.035156 57.652344 45.316406 57.5625 46.464844 57.390625 C 49.28125 60.238281 53.871094 61.476562 57.589844 61.476562 C 57.832031 61.476562 58.078125 61.472656 58.3125 61.460938 C 60.46875 61.359375 61.875 60.863281 62.5 59.980469 C 62.773438 59.582031 62.867188 59.113281 62.757812 58.65625 C 62.542969 57.742188 61.707031 57.292969 60.542969 56.671875 C 59.402344 56.054688 57.902344 55.242188 57.199219 54.03125 C 60.773438 51.078125 62.796875 47.113281 62.796875 42.996094 C 62.796875 36.738281 58.117188 31.152344 51.0625 28.558594 Z M 15.613281 29.585938 L 15.613281 32.136719 L 30.921875 32.136719 L 30.921875 29.585938 Z M 47.527344 37.242188 C 46.890625 38.136719 46.1875 38.996094 45.414062 39.792969 L 51.335938 39.792969 L 51.335938 37.242188 Z M 40.605469 43.621094 C 38.847656 44.675781 36.917969 45.539062 34.871094 46.171875 L 51.335938 46.171875 L 51.335938 43.621094 Z M 40.605469 43.621094 "/></g></g></svg>