<svg xmlns="http://www.w3.org/2000/svg" xmlns:xlink="http://www.w3.org/1999/xlink" width="147" zoomAndPan="magnify" viewBox="0 0 110.25 110.249996" height="147" preserveAspectRatio="xMidYMid meet"><defs><clipPath id="a48e6cb776"><path d="M 1 1 L 108 1 L 108 109.503906 L 1 109.503906 Z M 1 1 "></path></clipPath></defs><g id="bd85b29b23"><g clip-rule="nonzero" clip-path="url(#a48e6cb776)"><path style=" stroke:none;fill-rule:evenodd;fill:#051052;fill-opacity:1;" d="M 8.320312 31.699219 C 11.296875 33.957031 14.859375 35.089844 18.425781 35.089844 C 21.988281 35.089844 25.550781 33.957031 28.527344 31.699219 C 27.648438 27.738281 24.09375 24.835938 19.96875 24.835938 L 16.882812 24.835938 C 12.753906 24.835938 9.199219 27.738281 8.320312 31.699219 Z M 64.273438 47.117188 C 64.273438 48.898438 62.824219 50.347656 61.042969 50.347656 L 52.988281 50.347656 L 52.988281 51.863281 C 52.988281 52.085938 53.175781 52.277344 53.402344 52.277344 L 62.988281 52.277344 C 63.378906 52.277344 63.75 52.4375 64.015625 52.722656 L 68.074219 57.046875 L 68.074219 53.6875 C 68.074219 52.910156 68.703125 52.277344 69.480469 52.277344 L 71.78125 52.277344 C 72.007812 52.277344 72.195312 52.085938 72.195312 51.863281 L 72.195312 38.324219 C 72.195312 38.097656 72.007812 37.910156 71.78125 37.910156 L 64.269531 37.910156 L 64.269531 47.117188 Z M 42.332031 52.300781 L 42.332031 48.9375 C 42.332031 48.160156 41.699219 47.53125 40.921875 47.53125 L 38.621094 47.53125 C 38.394531 47.53125 38.207031 47.34375 38.207031 47.117188 L 38.207031 33.578125 C 38.207031 33.355469 38.398438 33.164062 38.621094 33.164062 L 61.042969 33.164062 C 61.265625 33.164062 61.457031 33.355469 61.457031 33.578125 L 61.457031 47.117188 C 61.457031 47.34375 61.265625 47.53125 61.042969 47.53125 L 47.417969 47.53125 C 47.027344 47.53125 46.65625 47.691406 46.390625 47.976562 Z M 43.824219 44.011719 C 43.046875 44.011719 42.417969 43.378906 42.417969 42.601562 C 42.417969 41.824219 43.046875 41.195312 43.824219 41.195312 L 55.832031 41.195312 C 56.609375 41.195312 57.242188 41.824219 57.242188 42.601562 C 57.242188 43.378906 56.609375 44.011719 55.832031 44.011719 Z M 43.824219 38.828125 C 43.046875 38.828125 42.417969 38.195312 42.417969 37.417969 C 42.417969 36.640625 43.046875 36.007812 43.824219 36.007812 L 55.832031 36.007812 C 56.609375 36.007812 57.242188 36.640625 57.242188 37.417969 C 57.242188 38.195312 56.609375 38.828125 55.832031 38.828125 Z M 41.925781 83.128906 L 66.746094 83.128906 C 66.914062 83.128906 67.023438 83.066406 67.105469 82.917969 C 67.191406 82.777344 67.191406 82.648438 67.105469 82.503906 L 54.695312 61.007812 C 54.613281 60.863281 54.503906 60.800781 54.335938 60.800781 C 54.167969 60.800781 54.058594 60.863281 53.972656 61.007812 L 41.5625 82.503906 C 41.480469 82.648438 41.480469 82.777344 41.5625 82.921875 C 41.648438 83.066406 41.757812 83.128906 41.925781 83.128906 Z M 55.746094 81.09375 L 55.746094 81.164062 C 55.746094 81.941406 55.113281 82.570312 54.335938 82.570312 C 53.558594 82.570312 52.925781 81.941406 52.925781 81.164062 L 52.925781 81.09375 C 52.925781 80.316406 53.558594 79.6875 54.335938 79.6875 C 55.113281 79.6875 55.746094 80.316406 55.746094 81.09375 Z M 55.746094 67.929688 L 55.746094 76.429688 C 55.746094 77.207031 55.113281 77.839844 54.335938 77.839844 C 53.558594 77.839844 52.925781 77.207031 52.925781 76.429688 L 52.925781 67.929688 C 52.925781 67.152344 53.558594 66.523438 54.335938 66.523438 C 55.113281 66.523438 55.746094 67.152344 55.746094 67.929688 Z M 37.929688 91.011719 C 37.59375 86.320312 35.617188 81.953125 32.253906 78.589844 C 28.894531 75.230469 24.527344 73.25 19.832031 72.917969 L 19.832031 37.851562 C 24.363281 37.527344 28.800781 35.644531 32.253906 32.1875 C 35.132812 29.308594 36.921875 25.753906 37.628906 22.027344 L 71.121094 22.027344 C 71.828125 25.753906 73.617188 29.308594 76.496094 32.1875 C 79.929688 35.617188 84.328125 37.5 88.820312 37.84375 L 88.820312 72.917969 C 84.128906 73.25 79.757812 75.230469 76.398438 78.589844 C 73.039062 81.953125 71.058594 86.320312 70.726562 91.011719 Z M 66.746094 85.945312 L 41.925781 85.945312 C 40.753906 85.945312 39.707031 85.34375 39.125 84.332031 C 38.535156 83.316406 38.535156 82.105469 39.125 81.09375 L 51.535156 59.597656 C 52.117188 58.585938 53.167969 57.980469 54.335938 57.980469 C 55.503906 57.980469 56.550781 58.585938 57.136719 59.597656 L 69.546875 81.09375 C 70.132812 82.105469 70.132812 83.316406 69.546875 84.328125 C 68.960938 85.34375 67.914062 85.945312 66.746094 85.945312 Z M 48.027344 50.347656 L 41.949219 56.828125 C 41.675781 57.113281 41.304688 57.269531 40.921875 57.269531 C 40.746094 57.269531 40.570312 57.238281 40.402344 57.171875 C 39.863281 56.957031 39.511719 56.4375 39.511719 55.859375 L 39.511719 50.347656 L 38.617188 50.347656 C 36.835938 50.347656 35.386719 48.898438 35.386719 47.117188 L 35.386719 33.578125 C 35.386719 31.792969 36.835938 30.34375 38.617188 30.34375 L 61.039062 30.34375 C 62.820312 30.34375 64.269531 31.792969 64.269531 33.578125 L 64.269531 35.089844 L 71.78125 35.089844 C 73.566406 35.089844 75.011719 36.542969 75.011719 38.324219 L 75.011719 51.863281 C 75.011719 53.648438 73.566406 55.09375 71.78125 55.09375 L 70.890625 55.09375 L 70.890625 60.609375 C 70.890625 61.1875 70.539062 61.707031 70 61.917969 C 69.832031 61.984375 69.65625 62.019531 69.480469 62.019531 C 69.097656 62.019531 68.726562 61.859375 68.457031 61.570312 L 62.378906 55.09375 L 53.402344 55.09375 C 51.617188 55.09375 50.167969 53.648438 50.167969 51.863281 L 50.167969 50.347656 Z M 77.816406 103.65625 C 79.078125 100.25 81.890625 97.625 85.34375 96.578125 C 83.484375 95.125 82.285156 92.863281 82.285156 90.324219 C 82.285156 85.945312 85.847656 82.382812 90.226562 82.382812 C 94.605469 82.382812 98.167969 85.945312 98.167969 90.324219 C 98.167969 92.863281 96.96875 95.125 95.113281 96.578125 C 98.566406 97.625 101.375 100.25 102.636719 103.65625 C 105.4375 100.574219 106.96875 96.613281 106.96875 92.421875 C 106.96875 87.949219 105.226562 83.746094 102.066406 80.582031 C 98.902344 77.421875 94.699219 75.683594 90.230469 75.679688 C 90.226562 75.679688 90.226562 75.679688 90.226562 75.679688 C 90.226562 75.679688 90.226562 75.679688 90.222656 75.679688 C 85.753906 75.683594 81.550781 77.421875 78.386719 80.582031 C 75.226562 83.746094 73.484375 87.949219 73.484375 92.421875 C 73.488281 96.613281 75.019531 100.574219 77.816406 103.65625 Z M 88.683594 98.898438 L 91.773438 98.898438 C 95.902344 98.898438 99.453125 101.800781 100.335938 105.765625 C 97.355469 108.023438 93.792969 109.15625 90.226562 109.15625 C 86.664062 109.15625 83.101562 108.023438 80.125 105.765625 C 81.003906 101.800781 84.558594 98.898438 88.683594 98.898438 Z M 90.226562 85.203125 C 87.402344 85.203125 85.105469 87.5 85.105469 90.324219 C 85.105469 93.152344 87.402344 95.449219 90.226562 95.449219 C 93.054688 95.449219 95.355469 93.152344 95.355469 90.324219 C 95.355469 87.5 93.054688 85.203125 90.226562 85.203125 Z M 23.308594 96.578125 C 26.761719 97.625 29.574219 100.25 30.835938 103.65625 C 33.632812 100.574219 35.164062 96.613281 35.164062 92.421875 C 35.164062 87.949219 33.421875 83.746094 30.257812 80.582031 C 27.097656 77.421875 22.894531 75.683594 18.425781 75.679688 C 18.425781 75.679688 18.421875 75.679688 18.417969 75.679688 C 13.949219 75.683594 9.742188 77.421875 6.582031 80.582031 C 3.421875 83.746094 1.679688 87.949219 1.679688 92.421875 C 1.679688 96.613281 3.210938 100.574219 6.007812 103.65625 C 7.269531 100.25 10.082031 97.625 13.535156 96.578125 C 11.675781 95.125 10.476562 92.863281 10.476562 90.324219 C 10.476562 85.945312 14.039062 82.382812 18.417969 82.382812 C 22.796875 82.382812 26.359375 85.945312 26.359375 90.324219 C 26.367188 92.863281 25.167969 95.125 23.308594 96.578125 Z M 28.527344 105.765625 C 25.550781 108.023438 21.988281 109.15625 18.425781 109.15625 C 14.859375 109.15625 11.296875 108.023438 8.320312 105.765625 C 9.203125 101.800781 12.753906 98.898438 16.882812 98.898438 L 19.96875 98.898438 C 24.09375 98.898438 27.648438 101.800781 28.527344 105.765625 Z M 23.546875 90.324219 C 23.546875 87.5 21.25 85.203125 18.425781 85.203125 C 15.601562 85.203125 13.300781 87.5 13.300781 90.324219 C 13.300781 93.152344 15.601562 95.449219 18.425781 95.449219 C 21.25 95.449219 23.546875 93.152344 23.546875 90.324219 Z M 77.914062 29.589844 C 79.175781 26.183594 81.988281 23.5625 85.441406 22.515625 C 83.582031 21.058594 82.382812 18.796875 82.382812 16.257812 C 82.382812 11.882812 85.945312 8.316406 90.324219 8.316406 C 94.703125 8.316406 98.265625 11.882812 98.265625 16.257812 C 98.265625 18.796875 97.066406 21.058594 95.207031 22.515625 C 98.664062 23.5625 101.472656 26.183594 102.738281 29.589844 C 108.683594 23.027344 108.492188 12.847656 102.160156 6.519531 C 95.632812 -0.0078125 85.011719 -0.0078125 78.484375 6.519531 C 72.160156 12.847656 71.96875 23.027344 77.914062 29.589844 Z M 88.78125 24.835938 C 84.652344 24.835938 81.101562 27.738281 80.21875 31.699219 C 83.195312 33.957031 86.757812 35.089844 90.324219 35.089844 C 93.886719 35.089844 97.449219 33.957031 100.429688 31.699219 C 99.546875 27.738281 95.996094 24.835938 91.867188 24.835938 Z M 90.328125 11.136719 C 93.152344 11.136719 95.449219 13.433594 95.449219 16.257812 C 95.449219 19.085938 93.152344 21.386719 90.328125 21.386719 C 87.5 21.386719 85.203125 19.085938 85.203125 16.257812 C 85.203125 13.433594 87.5 11.136719 90.328125 11.136719 Z M 18.425781 8.316406 C 14.046875 8.316406 10.484375 11.882812 10.484375 16.257812 C 10.484375 18.796875 11.679688 21.058594 13.539062 22.515625 C 10.089844 23.5625 7.273438 26.183594 6.015625 29.589844 C 0.0703125 23.027344 0.257812 12.847656 6.589844 6.519531 C 13.117188 -0.0078125 23.738281 -0.0078125 30.265625 6.519531 C 36.59375 12.847656 36.789062 23.027344 30.839844 29.589844 C 29.578125 26.183594 26.769531 23.5625 23.316406 22.515625 C 25.171875 21.058594 26.375 18.796875 26.375 16.257812 C 26.367188 11.882812 22.804688 8.316406 18.425781 8.316406 Z M 13.300781 16.257812 C 13.300781 19.085938 15.601562 21.386719 18.425781 21.386719 C 21.25 21.386719 23.546875 19.085938 23.546875 16.257812 C 23.546875 13.433594 21.25 11.136719 18.425781 11.136719 C 15.601562 11.136719 13.300781 13.433594 13.300781 16.257812 Z M 13.300781 16.257812 "></path></g></g></svg>