<svg xmlns="http://www.w3.org/2000/svg" xmlns:xlink="http://www.w3.org/1999/xlink" width="90" zoomAndPan="magnify" viewBox="0 0 67.5 67.499996" height="90" preserveAspectRatio="xMidYMid meet" version="1.2"><defs><clipPath id="31c0bd54b2"><path d="M 2.273438 33 L 13 33 L 13 50 L 2.273438 50 Z M 2.273438 33 "/></clipPath><clipPath id="100fbcdca7"><path d="M 42 11.484375 L 57 11.484375 L 57 24 L 42 24 Z M 42 11.484375 "/></clipPath><clipPath id="edde801dd1"><path d="M 17 44.46875 L 34.910156 44.46875 L 34.910156 55.109375 L 17 55.109375 Z M 17 44.46875 "/></clipPath><clipPath id="7abf19b706"><path d="M 47 36 L 64.808594 36 L 64.808594 39 L 47 39 Z M 47 36 "/></clipPath></defs><g id="bfab31560e"><g clip-rule="nonzero" clip-path="url(#31c0bd54b2)"><path style=" stroke:none;fill-rule:nonzero;fill:#051052;fill-opacity:1;" d="M 6.160156 35.652344 C 5.984375 35.660156 5.8125 35.6875 5.648438 35.742188 L 5.597656 35.742188 C 5.179688 35.878906 4.835938 36.175781 4.636719 36.570312 C 4.4375 36.96875 4.40625 37.417969 4.542969 37.839844 L 7.5 46.78125 C 7.640625 47.199219 7.9375 47.542969 8.328125 47.738281 C 8.726562 47.9375 9.179688 47.972656 9.597656 47.832031 L 9.644531 47.832031 C 10.0625 47.695312 10.410156 47.398438 10.609375 47.007812 C 10.800781 46.609375 10.839844 46.15625 10.695312 45.738281 L 7.738281 36.796875 C 7.511719 36.117188 6.878906 35.652344 6.160156 35.652344 Z M 9.0625 49.957031 C 8.285156 49.957031 7.527344 49.710938 6.898438 49.253906 C 6.269531 48.792969 5.800781 48.148438 5.558594 47.410156 L 2.601562 38.496094 C 2.292969 37.5625 2.367188 36.546875 2.804688 35.671875 C 3.246094 34.792969 4.019531 34.125 4.953125 33.820312 L 5 33.820312 C 5.933594 33.511719 6.949219 33.589844 7.820312 34.023438 C 8.699219 34.46875 9.367188 35.238281 9.675781 36.167969 L 12.628906 45.089844 C 12.933594 46.023438 12.859375 47.039062 12.417969 47.917969 C 11.976562 48.792969 11.210938 49.457031 10.277344 49.765625 L 10.226562 49.765625 C 9.851562 49.890625 9.460938 49.957031 9.0625 49.957031 "/></g><path style=" stroke:none;fill-rule:nonzero;fill:#051052;fill-opacity:1;" d="M 33.746094 15.648438 C 33.574219 15.648438 33.402344 15.675781 33.238281 15.730469 L 33.1875 15.730469 C 32.765625 15.867188 32.417969 16.171875 32.222656 16.5625 C 32.027344 16.957031 31.988281 17.414062 32.132812 17.832031 L 41.722656 46.855469 C 41.855469 47.277344 42.160156 47.617188 42.550781 47.816406 C 42.949219 48.015625 43.402344 48.050781 43.820312 47.910156 L 43.867188 47.910156 C 44.285156 47.773438 44.632812 47.476562 44.832031 47.078125 C 45.023438 46.6875 45.058594 46.226562 44.925781 45.8125 L 35.324219 16.785156 C 35.101562 16.105469 34.460938 15.648438 33.746094 15.648438 Z M 43.292969 50.007812 C 42.515625 50.007812 41.757812 49.761719 41.128906 49.300781 C 40.5 48.84375 40.023438 48.203125 39.789062 47.464844 L 30.183594 18.484375 C 29.882812 17.558594 29.957031 16.542969 30.398438 15.667969 C 30.839844 14.796875 31.609375 14.136719 32.542969 13.824219 L 32.589844 13.824219 C 33.519531 13.523438 34.535156 13.59375 35.410156 14.035156 C 36.289062 14.476562 36.957031 15.246094 37.257812 16.175781 L 46.855469 45.152344 C 47.167969 46.085938 47.089844 47.101562 46.648438 47.976562 C 46.207031 48.847656 45.4375 49.515625 44.507812 49.824219 L 44.460938 49.824219 C 44.085938 49.953125 43.6875 50.015625 43.292969 50.007812 "/><path style=" stroke:none;fill-rule:nonzero;fill:#051052;fill-opacity:1;" d="M 12.59375 44.914062 L 38.746094 44.914062 L 31.101562 21.304688 L 9.925781 36.902344 Z M 40.144531 46.949219 L 11.839844 46.949219 C 11.398438 46.949219 11.007812 46.667969 10.867188 46.253906 L 7.753906 36.839844 C 7.617188 36.421875 7.761719 35.960938 8.121094 35.699219 L 31.050781 18.820312 C 31.316406 18.628906 31.65625 18.570312 31.96875 18.671875 C 32.28125 18.769531 32.523438 19.019531 32.625 19.328125 L 41.132812 45.613281 C 41.238281 45.929688 41.183594 46.273438 40.984375 46.535156 C 40.792969 46.808594 40.476562 46.957031 40.152344 46.949219 L 40.144531 46.949219 "/><path style=" stroke:none;fill-rule:nonzero;fill:#051052;fill-opacity:1;" d="M 45.605469 30.757812 C 45.101562 30.757812 44.675781 30.394531 44.59375 29.898438 C 44.515625 29.40625 44.808594 28.925781 45.285156 28.765625 L 59.992188 23.898438 C 60.527344 23.722656 61.101562 24.007812 61.277344 24.542969 C 61.453125 25.078125 61.167969 25.660156 60.632812 25.835938 L 45.925781 30.699219 C 45.820312 30.734375 45.714844 30.753906 45.605469 30.757812 "/><g clip-rule="nonzero" clip-path="url(#100fbcdca7)"><path style=" stroke:none;fill-rule:nonzero;fill:#051052;fill-opacity:1;" d="M 43.132812 23.28125 C 42.695312 23.28125 42.304688 23 42.167969 22.585938 C 42.027344 22.164062 42.171875 21.707031 42.523438 21.449219 L 54.941406 12.175781 C 55.402344 11.839844 56.039062 11.933594 56.378906 12.390625 C 56.714844 12.847656 56.613281 13.488281 56.15625 13.824219 L 43.746094 23.074219 C 43.566406 23.207031 43.351562 23.28125 43.132812 23.28125 "/></g><g clip-rule="nonzero" clip-path="url(#edde801dd1)"><path style=" stroke:none;fill-rule:nonzero;fill:#051052;fill-opacity:1;" d="M 19.730469 46.949219 L 19.730469 51.027344 C 19.730469 51.570312 19.945312 52.089844 20.328125 52.46875 C 20.707031 52.855469 21.226562 53.066406 21.769531 53.066406 L 30.433594 53.066406 C 30.972656 53.066406 31.492188 52.855469 31.875 52.46875 C 32.257812 52.089844 32.476562 51.570312 32.476562 51.027344 L 32.476562 46.949219 Z M 30.433594 55.109375 L 21.769531 55.109375 C 20.6875 55.109375 19.652344 54.675781 18.886719 53.910156 C 18.121094 53.148438 17.695312 52.109375 17.695312 51.027344 L 17.695312 45.933594 C 17.695312 45.371094 18.148438 44.914062 18.710938 44.914062 L 33.492188 44.914062 C 33.761719 44.914062 34.019531 45.019531 34.214844 45.210938 C 34.40625 45.40625 34.511719 45.664062 34.511719 45.933594 L 34.511719 51.027344 C 34.511719 52.109375 34.082031 53.148438 33.320312 53.910156 C 32.550781 54.675781 31.515625 55.109375 30.433594 55.109375 "/></g><g clip-rule="nonzero" clip-path="url(#7abf19b706)"><path style=" stroke:none;fill-rule:nonzero;fill:#051052;fill-opacity:1;" d="M 63.558594 38.292969 L 48.210938 38.292969 C 47.644531 38.292969 47.195312 37.832031 47.195312 37.269531 C 47.195312 36.707031 47.644531 36.25 48.210938 36.25 L 63.558594 36.25 C 64.121094 36.25 64.578125 36.707031 64.578125 37.269531 C 64.578125 37.832031 64.121094 38.292969 63.558594 38.292969 "/></g></g></svg>