<svg xmlns="http://www.w3.org/2000/svg" xmlns:xlink="http://www.w3.org/1999/xlink" width="90" zoomAndPan="magnify" viewBox="0 0 67.5 67.499996" height="90" preserveAspectRatio="xMidYMid meet" version="1.2"><defs><clipPath id="7251961867"><path d="M 4.914062 6.699219 L 62.238281 6.699219 L 62.238281 60.304688 L 4.914062 60.304688 Z M 4.914062 6.699219 "/></clipPath></defs><g id="27c285d28e"><g clip-rule="nonzero" clip-path="url(#7251961867)"><path style=" stroke:none;fill-rule:nonzero;fill:#051052;fill-opacity:1;" d="M 12.058594 6.703125 C 11.40625 6.703125 10.871094 7.238281 10.871094 7.894531 L 10.871094 40.054688 C 10.871094 40.707031 11.40625 41.246094 12.058594 41.246094 L 16.0625 41.246094 C 15.359375 40.625 14.835938 39.804688 14.597656 38.863281 L 13.25 38.863281 L 13.25 9.082031 L 53.75 9.082031 L 53.75 38.863281 L 52.402344 38.863281 C 52.164062 39.804688 51.640625 40.625 50.941406 41.246094 L 54.941406 41.246094 C 55.597656 41.246094 56.132812 40.707031 56.132812 40.054688 L 56.132812 7.894531 C 56.132812 7.238281 55.597656 6.703125 54.941406 6.703125 Z M 16.824219 11.464844 C 16.167969 11.464844 15.632812 12.003906 15.632812 12.65625 L 15.632812 34.527344 C 16.253906 33.824219 17.074219 33.300781 18.015625 33.0625 L 18.015625 13.847656 L 48.984375 13.847656 L 48.984375 33.0625 C 49.925781 33.300781 50.75 33.824219 51.367188 34.527344 L 51.367188 12.65625 C 51.367188 12.003906 50.832031 11.464844 50.175781 11.464844 Z M 22.351562 34.097656 C 23.054688 34.714844 23.578125 35.539062 23.816406 36.480469 L 43.1875 36.480469 C 43.421875 35.539062 43.945312 34.714844 44.648438 34.097656 Z M 19.207031 35.289062 C 18.324219 35.289062 17.5625 35.765625 17.144531 36.480469 C 16.945312 36.824219 16.824219 37.242188 16.824219 37.671875 C 16.824219 38.097656 16.945312 38.515625 17.144531 38.863281 C 17.25 39.039062 17.375 39.207031 17.519531 39.351562 C 17.652344 39.484375 17.804688 39.59375 17.964844 39.695312 C 17.445312 45.128906 11.914062 49.582031 4.914062 49.582031 L 4.914062 51.964844 C 10.378906 51.964844 15.253906 49.539062 18.015625 45.832031 L 18.015625 57.921875 L 15.632812 57.921875 L 15.632812 60.300781 L 22.78125 60.300781 L 22.78125 57.921875 L 20.398438 57.921875 L 20.398438 45.832031 C 23.160156 49.539062 28.035156 51.964844 33.5 51.964844 C 38.96875 51.964844 43.84375 49.539062 46.601562 45.832031 L 46.601562 57.921875 L 44.222656 57.921875 L 44.222656 60.300781 L 51.367188 60.300781 L 51.367188 57.921875 L 48.984375 57.921875 L 48.984375 45.832031 C 51.746094 49.539062 56.621094 51.964844 62.085938 51.964844 L 62.085938 49.582031 C 55.085938 49.582031 49.558594 45.128906 49.035156 39.695312 C 49.371094 39.488281 49.65625 39.207031 49.855469 38.863281 C 50.058594 38.515625 50.175781 38.097656 50.175781 37.671875 C 50.175781 37.242188 50.058594 36.824219 49.855469 36.480469 C 49.4375 35.765625 48.675781 35.289062 47.792969 35.289062 C 47.132812 35.289062 46.539062 35.554688 46.109375 35.992188 C 45.964844 36.136719 45.835938 36.300781 45.734375 36.480469 C 45.53125 36.824219 45.410156 37.242188 45.410156 37.671875 C 45.410156 38.097656 45.53125 38.515625 45.734375 38.863281 C 45.933594 39.207031 46.21875 39.488281 46.550781 39.695312 C 46.03125 45.128906 40.5 49.582031 33.5 49.582031 C 26.5 49.582031 20.96875 45.128906 20.449219 39.695312 C 20.785156 39.488281 21.066406 39.207031 21.269531 38.863281 C 21.472656 38.515625 21.589844 38.097656 21.589844 37.671875 C 21.589844 37.242188 21.472656 36.824219 21.269531 36.480469 C 20.851562 35.765625 20.089844 35.289062 19.207031 35.289062 Z M 23.816406 38.863281 C 23.578125 39.804688 23.054688 40.625 22.351562 41.246094 L 44.648438 41.246094 C 43.945312 40.625 43.421875 39.804688 43.1875 38.863281 Z M 23.816406 38.863281 "/></g></g></svg>