<svg xmlns="http://www.w3.org/2000/svg" xmlns:xlink="http://www.w3.org/1999/xlink" width="152" zoomAndPan="magnify" viewBox="0 0 114 124.499996" height="166" preserveAspectRatio="xMidYMid meet"><defs><clipPath id="9bbef9f77a"><path d="M 0.226562 0 L 113.023438 0 L 113.023438 124 L 0.226562 124 Z M 0.226562 0 "></path></clipPath></defs><g id="f09db9ca96"><g clip-rule="nonzero" clip-path="url(#9bbef9f77a)"><path style=" stroke:none;fill-rule:nonzero;fill:#1c114b;fill-opacity:1;" d="M 96.324219 63.402344 L 96.5625 63.824219 L 96.773438 63.824219 L 96.847656 63.582031 L 96.820312 63.269531 L 97.148438 63.34375 L 97.445312 63.761719 L 97.445312 64.078125 L 97.894531 64.078125 L 97.894531 63.6875 L 98.179688 63.507812 L 98.179688 63.164062 L 98.390625 63.058594 L 98.570312 63.058594 L 98.75 63.300781 L 98.882812 63.058594 L 98.882812 62.25 L 98.75 61.863281 L 98.644531 60.890625 L 98.644531 60.1875 L 98.433594 60.15625 L 98.328125 59.769531 L 98.882812 59.769531 L 99.09375 59.738281 L 99.300781 59.453125 C 99.300781 59.453125 99.4375 58.722656 99.480469 58.617188 C 99.511719 58.511719 99.40625 57.882812 99.480469 57.777344 C 99.554688 57.671875 99.480469 57.046875 99.480469 57.046875 L 99.300781 56.238281 L 98.957031 55.742188 L 98.957031 55.398438 L 98.75 55.203125 L 98.824219 54.949219 C 98.824219 54.949219 98.851562 54.769531 98.957031 54.710938 C 99.0625 54.636719 99.511719 55.203125 99.511719 55.203125 L 99.644531 55.203125 L 99.78125 54.921875 L 100.167969 54.785156 C 100.167969 54.785156 100.410156 54.816406 100.410156 54.964844 C 100.410156 55.101562 100.410156 55.21875 100.410156 55.21875 L 100.648438 55.21875 L 100.933594 54.996094 L 101.277344 54.996094 C 101.277344 54.996094 101.515625 55.085938 101.515625 55.21875 C 101.515625 55.339844 101.753906 55.59375 101.753906 55.59375 L 102.175781 55.21875 L 102.308594 54.441406 C 102.308594 54.441406 102.414062 54.097656 102.488281 53.949219 C 102.5625 53.8125 102.773438 53.5 102.773438 53.5 L 102.773438 53.15625 L 102.953125 52.707031 L 102.953125 52.511719 L 103.191406 52.480469 L 103.429688 52.242188 L 103.429688 52.035156 L 103.609375 51.75 L 103.609375 51.433594 L 103.851562 51.195312 L 104.058594 50.777344 L 104.058594 50.328125 L 103.714844 49.984375 C 103.714844 49.984375 103.429688 49.953125 103.476562 49.804688 C 103.507812 49.667969 103.609375 49.460938 103.609375 49.460938 L 103.640625 48.800781 L 104.058594 48.667969 L 104.238281 48.429688 L 104.375 48.007812 L 104.613281 47.664062 L 104.957031 47.425781 L 104.957031 47.082031 C 104.957031 47.082031 104.957031 46.976562 104.957031 46.871094 C 104.957031 46.765625 105.03125 46.585938 105.136719 46.484375 C 105.242188 46.378906 105.347656 46.242188 105.347656 46.242188 L 105.136719 45.824219 L 105.03125 45.226562 L 104.925781 44.777344 L 105.105469 44.179688 L 105.347656 43.789062 C 105.347656 43.789062 105.421875 43.714844 105.527344 43.683594 C 105.628906 43.65625 105.972656 43.582031 105.972656 43.582031 L 106.5 42.921875 C 106.5 42.921875 106.738281 42.710938 106.84375 42.710938 C 106.945312 42.710938 107.261719 42.367188 107.261719 42.367188 L 107.441406 42.054688 L 107.785156 42.023438 C 107.785156 42.023438 107.859375 42.023438 107.996094 41.890625 C 108.128906 41.753906 108.203125 41.472656 108.203125 41.472656 C 108.203125 41.472656 108.488281 41.230469 108.546875 41.128906 C 108.621094 41.023438 108.9375 40.738281 109.042969 40.738281 C 109.144531 40.738281 109.878906 40.558594 109.878906 40.558594 L 110.222656 40.453125 L 110.222656 40.246094 L 110.539062 40.273438 L 110.820312 40.199219 L 111.164062 40.167969 L 111.375 40.378906 L 111.375 40.933594 L 111.660156 40.902344 L 111.972656 41.082031 L 112.257812 41.1875 L 112.4375 41.050781 L 112.4375 40.738281 L 111.988281 40.109375 L 111.539062 39.796875 L 111.433594 39.03125 L 111.511719 38.792969 L 111.792969 38.582031 L 112.316406 37.878906 L 112.8125 37.640625 L 113.019531 37.640625 L 113.019531 37.011719 C 112.886719 36.730469 112.707031 36.382812 112.707031 36.382812 L 112.257812 35.757812 L 111.808594 35.726562 L 111.523438 35.859375 L 111.179688 35.832031 L 110.941406 35.832031 L 110.550781 35.800781 L 110.371094 35.621094 L 110.132812 35.621094 L 109.714844 35.757812 C 109.714844 35.757812 109.609375 35.652344 109.503906 35.785156 C 109.402344 35.921875 109.429688 36.070312 109.429688 36.070312 L 109.324219 36.28125 L 108.800781 36.070312 L 108.90625 35.621094 L 109.011719 35.277344 L 109.117188 34.964844 L 109.25 34.679688 L 109.460938 34.5 L 109.59375 34.320312 L 109.773438 34.003906 L 109.25 33.765625 L 109.042969 33.273438 L 108.488281 33.378906 L 108.414062 33.796875 L 108.023438 33.929688 L 108.023438 33.40625 L 107.679688 33.199219 L 107.816406 33.019531 L 107.996094 32.808594 L 108.171875 32.496094 L 108.519531 32.496094 L 108.070312 32.210938 L 107.46875 31.507812 L 106.707031 32 L 105.765625 32.597656 L 105.628906 33.046875 L 105.421875 33.390625 L 105.421875 33.601562 L 104.65625 33.601562 L 104.269531 33.289062 L 103.984375 33.289062 L 103.355469 33.316406 L 102.90625 33.109375 L 102.457031 32.765625 L 102.21875 32.734375 L 101.980469 33.046875 C 101.980469 33.046875 101.84375 33.152344 101.636719 33.226562 C 101.425781 33.300781 101.21875 33.300781 101.21875 33.300781 L 100.140625 34.664062 L 99.585938 35.15625 L 98.988281 35.578125 L 98.359375 35.679688 C 98.359375 35.679688 98.074219 35.964844 97.910156 35.964844 C 97.746094 35.964844 97.207031 36.039062 97.207031 36.039062 L 97.101562 36.488281 L 96.863281 37.085938 C 96.863281 37.085938 97 37.191406 96.683594 37.402344 C 96.371094 37.609375 95.636719 37.925781 95.636719 37.925781 L 95.398438 38.238281 L 95.53125 38.554688 L 95.425781 39.078125 L 95.144531 39.285156 L 94.800781 39.570312 L 94.246094 39.675781 L 93.796875 39.78125 L 93.511719 39.855469 L 93.09375 40.09375 C 93.09375 40.09375 92.75 40.167969 92.644531 40.167969 C 92.539062 40.167969 92.121094 40.199219 92.121094 40.199219 L 91.703125 40.167969 L 91.566406 40.933594 L 91.671875 41.171875 L 92.089844 41.457031 L 92.585938 41.425781 L 92.867188 41.320312 L 93.152344 41.246094 L 93.542969 41.5625 L 93.648438 41.949219 L 93.4375 42.234375 L 93.125 42.519531 L 93.304688 42.726562 L 93.617188 43.117188 L 93.722656 43.609375 C 93.722656 43.609375 93.855469 43.925781 93.648438 43.925781 C 93.4375 43.925781 93.019531 43.820312 93.019531 43.820312 L 92.882812 44.132812 L 92.539062 43.925781 L 92.40625 44.164062 L 91.984375 44.238281 C 91.984375 44.238281 91.777344 44.269531 91.640625 44.3125 C 91.507812 44.359375 91.296875 44.074219 91.296875 44.074219 L 91.089844 44.105469 L 90.804688 44.34375 C 90.804688 44.34375 90.460938 44.34375 90.355469 44.34375 C 90.25 44.34375 89.90625 44.375 89.90625 44.375 L 88.964844 44.375 L 88.15625 44.34375 L 87.632812 43.925781 L 86.71875 43.789062 L 86.617188 44.179688 C 86.617188 44.179688 86.4375 44.285156 86.300781 44.3125 C 86.167969 44.34375 85.746094 44.449219 85.746094 44.449219 L 85.222656 44.628906 L 84.804688 44.761719 L 84.460938 44.761719 L 83.96875 44.734375 L 83.578125 44.761719 L 83.757812 44.476562 L 83.367188 44.507812 L 83.1875 44.375 C 83.1875 44.375 82.980469 44.089844 82.875 44.132812 C 82.769531 44.164062 82.5625 44.3125 82.5625 44.3125 L 82.007812 44.417969 L 81.828125 44.132812 L 81.230469 43.851562 L 81.15625 43.640625 L 81.050781 43.328125 L 80.871094 43.011719 L 80.945312 42.667969 L 81.050781 42.382812 L 81.15625 42.203125 L 81.050781 41.921875 L 80.839844 41.636719 L 80.765625 41.320312 C 80.765625 41.320312 80.734375 41.113281 80.796875 40.976562 C 80.871094 40.84375 80.976562 40.589844 80.976562 40.589844 L 81.003906 40.199219 L 81.078125 39.808594 L 81.003906 39.316406 L 80.824219 39.03125 L 80.226562 38.929688 L 79.988281 38.824219 L 79.671875 38.898438 L 79.285156 39.136719 L 79 39.167969 L 78.867188 39.347656 L 78.101562 39.421875 L 78.101562 39.632812 L 78.28125 39.976562 L 78.28125 40.363281 L 78.207031 40.8125 L 77.757812 41.304688 L 77.730469 41.90625 L 77.699219 42.667969 L 77.773438 43.371094 L 78.058594 43.265625 L 78.085938 43.582031 L 78.222656 44.179688 L 78.609375 44.734375 C 78.609375 44.734375 78.507812 44.734375 78.433594 44.972656 C 78.355469 45.210938 78.222656 45.570312 78.222656 45.570312 L 77.832031 45.644531 L 77.652344 46.304688 L 77.101562 45.78125 L 76.996094 45.988281 L 76.367188 46.09375 L 75.917969 46.230469 L 75.363281 46.09375 L 75.125 46.40625 C 74.914062 46.484375 74.78125 46.273438 74.78125 46.273438 C 74.496094 46.167969 74.226562 46.09375 74.226562 46.09375 L 74.199219 45.601562 L 73.988281 45.570312 L 73.855469 45.75 L 73.675781 45.855469 L 73.496094 45.988281 L 73.253906 46.019531 L 72.972656 46.050781 L 72.761719 46.257812 L 72.523438 45.871094 L 71.609375 45.421875 L 71.191406 45.316406 L 70.980469 45.390625 L 70.382812 45.316406 L 69.964844 45.347656 L 69.679688 45.527344 L 69.5 45.628906 C 69.5 45.628906 69.605469 45.242188 68.976562 45.285156 L 69.082031 44.375 L 68.484375 44.375 L 67.882812 44.824219 L 67.390625 44.925781 L 67.105469 44.375 L 66.613281 44.34375 L 66.402344 44.03125 L 65.804688 43.851562 L 65.175781 43.714844 C 65.175781 43.714844 64.757812 43.820312 64.996094 43.265625 C 65.238281 42.710938 64.96875 42.355469 64.96875 42.355469 L 64.160156 42.25 L 63.710938 42.070312 L 63.53125 41.785156 L 63.1875 41.652344 L 62.871094 41.515625 L 62.871094 41.859375 L 62.378906 41.859375 L 61.71875 42.070312 L 61.300781 41.890625 L 60.671875 41.753906 L 60.222656 41.753906 L 60.089844 41.996094 L 59.671875 42.414062 L 59.28125 41.816406 L 58.996094 41.785156 L 58.398438 41.605469 L 58.085938 41.5 L 57.589844 41.472656 L 57.695312 41.050781 L 57.488281 40.601562 L 57.066406 40.574219 L 56.679688 40.679688 L 56.5 40.648438 L 55.945312 40.363281 L 55.796875 40.335938 L 54.957031 39.78125 L 54.675781 39.707031 C 54.675781 39.707031 54.539062 40.019531 54.433594 40.019531 C 54.328125 40.019531 54.121094 39.707031 54.015625 39.707031 C 53.910156 39.707031 53.253906 39.363281 53.253906 39.363281 L 52.699219 38.867188 L 52.460938 38.628906 L 52.070312 38.597656 L 52.144531 37.851562 L 51.726562 37.671875 L 51.382812 37.535156 L 51.097656 37.355469 L 50.605469 37.355469 L 50.738281 37.117188 L 50.394531 37.085938 L 50.050781 36.742188 L 49.707031 36.429688 L 49.453125 36.355469 L 49.347656 36.804688 L 49.109375 36.5625 L 48.660156 36.488281 L 48.421875 35.996094 L 48.03125 35.785156 L 48.449219 35.023438 L 48.839844 34.320312 L 49.078125 33.976562 L 49.363281 33.945312 L 49.125 33.183594 C 49.125 33.183594 49.09375 33.078125 49.125 32.898438 C 49.152344 32.71875 48.945312 32.765625 49.152344 32.71875 C 49.363281 32.6875 49.542969 32.71875 49.542969 32.613281 C 49.542969 32.507812 49.542969 31.566406 49.542969 31.566406 L 49.960938 31.460938 C 49.960938 31.460938 50.277344 31.148438 50.277344 31.042969 C 50.277344 30.9375 50.410156 30.730469 50.410156 30.730469 L 50.800781 30.699219 L 51.113281 30.175781 L 51.324219 30.070312 L 51.605469 30.042969 L 51.605469 29.773438 L 51.21875 29.488281 L 50.828125 29.382812 L 50.484375 28.753906 L 50.199219 28.679688 C 49.992188 28.605469 49.542969 28.335938 49.542969 28.335938 L 48.988281 28.304688 L 48.78125 28.066406 L 48.703125 27.542969 C 48.703125 27.542969 48.464844 27.363281 48.390625 27.257812 C 48.316406 27.152344 47.972656 27.078125 47.972656 27.078125 L 47.476562 26.585938 L 47.132812 26.347656 C 47.132812 26.347656 47.027344 26.375 46.894531 26.375 C 46.761719 26.375 46.503906 26.449219 46.503906 26.449219 L 46.117188 26.347656 L 45.9375 26.0625 L 45.652344 25.820312 L 45.414062 25.402344 L 45.175781 25.328125 L 45.25 24.730469 L 44.964844 24.730469 L 44.472656 23.96875 L 44.5 24.386719 L 44.292969 24.59375 L 44.082031 24.878906 L 43.917969 24.878906 L 43.84375 24.429688 L 43.558594 24.324219 L 43.453125 23.90625 L 43.632812 23.488281 L 43.738281 23.070312 L 43.601562 22.726562 L 43.421875 22.410156 L 43.320312 22.125 L 43.242188 21.738281 L 42.929688 21.632812 L 43.003906 20.976562 L 42.585938 20.660156 L 42.765625 20.421875 L 42.765625 19.792969 L 42.167969 19.660156 L 42.464844 19.464844 L 42.824219 19.105469 L 43.8125 19.105469 L 43.8125 19.671875 L 44.230469 20.242188 L 45.160156 19.671875 L 45.9375 19.671875 L 46.582031 18.820312 L 46.582031 18.117188 L 45.878906 17.550781 L 46.085938 16.695312 C 46.085938 16.695312 45.59375 16.351562 45.382812 16.351562 C 45.175781 16.351562 44.515625 15.902344 44.515625 15.902344 L 44.484375 14.75 L 45.113281 14.570312 L 44.90625 14.390625 L 44.621094 13.554688 L 44.53125 13.074219 L 46.582031 13.074219 L 46.582031 12.371094 L 46.910156 11.894531 L 46.984375 11.386719 L 47.71875 11.386719 L 47.71875 10.621094 L 48.644531 10.335938 L 49.136719 9.351562 L 49.136719 8.496094 L 49.558594 7.792969 L 49.558594 7.226562 L 49.199219 6.582031 L 48.628906 6.222656 L 48.496094 5.804688 L 46.789062 5.804688 L 46.65625 5.445312 L 46.011719 5.445312 L 45.308594 5.730469 L 43.542969 5.730469 C 43.542969 5.730469 43.257812 5.804688 43.050781 5.863281 C 42.839844 5.9375 42.121094 6.285156 42.121094 6.285156 L 41.269531 6.640625 L 40.339844 6.71875 L 39.488281 6.925781 L 38.785156 6.792969 L 39.5625 6.222656 L 38.785156 5.730469 L 37.574219 5.085938 L 36.734375 3.890625 L 36.167969 3.890625 C 36.167969 3.890625 36.167969 3.53125 35.882812 3.320312 C 35.597656 3.113281 34.894531 2.753906 34.894531 2.753906 L 34.253906 2.332031 L 34.253906 1.765625 L 33.832031 1.40625 L 33.339844 1.046875 L 32.773438 1.046875 L 32.773438 0.285156 L 31.84375 0.285156 L 31.351562 0 L 28.941406 0 L 28.164062 0.285156 L 27.027344 0.359375 L 27.027344 0.851562 L 26.667969 1.136719 L 25.816406 0.777344 L 24.960938 0.644531 L 23.976562 1.496094 L 23.273438 1.914062 L 22.988281 2.273438 L 22.210938 2.84375 L 22.210938 3.890625 L 22.988281 4.175781 L 24.199219 4.097656 L 24.484375 5.085938 L 25.125 5.582031 L 26.472656 5.863281 L 26.339844 6.222656 L 26.054688 6.867188 L 27.191406 7.359375 L 27.402344 7.71875 L 26.980469 8.648438 L 25.917969 8.929688 L 25.785156 9.632812 L 24.933594 9.710938 L 25.066406 10.414062 L 25.066406 12.613281 L 25.140625 14.03125 L 25.007812 15.246094 C 25.007812 15.246094 24.589844 15.664062 25.007812 15.949219 C 25.425781 16.230469 25.933594 16.515625 25.933594 16.515625 L 26.789062 16.800781 L 27.492188 17.160156 L 27.566406 17.578125 L 28.207031 17.652344 L 28.851562 17.371094 L 28.71875 18.507812 L 29.359375 18.789062 L 29.855469 19 L 30.558594 19.285156 L 31.335938 19.417969 L 31.050781 20.273438 L 30.632812 20.839844 L 29.285156 20.839844 L 28.972656 21.246094 C 28.972656 21.246094 28.449219 21.421875 28.164062 21.707031 C 27.878906 21.992188 27.878906 21.992188 27.878906 21.992188 L 28.222656 22.859375 L 27.878906 23.203125 L 28.402344 23.203125 C 28.402344 23.203125 27.9375 23.546875 27.9375 23.847656 C 27.9375 24.132812 27.878906 24.492188 27.878906 24.492188 L 28.34375 24.492188 C 28.34375 24.492188 28.582031 24.925781 28.402344 24.925781 C 28.222656 24.925781 28.222656 24.925781 28.222656 24.925781 L 27.625 25.296875 L 26.921875 25.761719 L 26.742188 26.179688 L 26.277344 26.601562 C 25.949219 26.882812 25.726562 27.152344 25.726562 27.152344 L 25.261719 27.152344 L 25.589844 27.4375 L 25.261719 27.4375 L 25.394531 27.902344 L 25.261719 28.1875 L 25.261719 28.605469 L 24.753906 28.980469 L 24.46875 29.351562 C 24.46875 29.351562 24.09375 29.261719 23.871094 29.351562 C 23.628906 29.441406 23.359375 29.070312 23.226562 29.351562 C 23.09375 29.636719 22.988281 30.054688 22.988281 30.054688 L 22.300781 31.910156 C 22.300781 31.910156 21.507812 32.554688 21.417969 32.839844 C 21.328125 33.125 21.042969 33.390625 20.773438 33.542969 C 20.488281 33.675781 19.515625 34.140625 19.515625 34.140625 C 19.515625 34.140625 18.453125 34.648438 18.410156 34.886719 C 18.363281 35.128906 18.363281 35.128906 18.363281 35.128906 C 18.363281 35.128906 18.273438 36.011719 18.125 36.011719 C 17.976562 36.011719 17.242188 36.519531 17.242188 36.519531 C 17.242188 36.519531 16.867188 37.535156 16.597656 37.6875 C 16.316406 37.820312 15.761719 37.507812 15.027344 37.6875 C 14.28125 37.867188 13.726562 37.925781 13.503906 38.058594 C 13.261719 38.195312 12.394531 38.613281 12.246094 38.058594 C 12.109375 37.507812 12.007812 37.042969 12.007812 37.042969 C 12.007812 37.042969 11.632812 36.339844 10.839844 36.714844 C 10.046875 37.085938 10.089844 37.460938 10.046875 37.597656 C 10 37.730469 9.449219 38.34375 9.449219 38.34375 C 9.449219 38.34375 9.269531 38.761719 8.746094 39.136719 C 8.234375 39.511719 7.816406 39.464844 7.578125 39.929688 C 7.339844 40.394531 7.53125 40.527344 7.339844 40.8125 C 7.160156 41.097656 6.589844 40.859375 7.054688 41.410156 C 7.519531 41.964844 7.757812 41.964844 7.980469 42.160156 C 8.222656 42.339844 8.492188 42.710938 8.492188 42.710938 C 8.492188 42.710938 9.417969 42.339844 9.550781 42.953125 C 9.6875 43.550781 9.792969 43.460938 9.597656 43.878906 C 9.417969 44.296875 9.179688 44.476562 9.179688 44.476562 L 9.164062 45.332031 L 9.402344 45.617188 L 9.507812 45.960938 C 9.507812 45.960938 9.328125 46.347656 9.71875 46.453125 C 10.105469 46.558594 11.214844 46.558594 11.214844 46.664062 C 11.214844 46.765625 10.972656 47.46875 11.136719 47.738281 C 11.316406 48.023438 11.839844 49.101562 11.945312 49.3125 C 12.050781 49.519531 12.917969 50.910156 12.917969 50.910156 C 12.917969 50.910156 13.203125 51.152344 12.917969 51.152344 C 12.632812 51.152344 12.46875 51.332031 12.46875 51.332031 C 12.46875 51.332031 12.648438 51.539062 12.605469 51.71875 C 12.574219 51.898438 12.425781 51.929688 12.394531 52.035156 C 12.363281 52.136719 12.5 52.167969 12.5 52.167969 L 12.992188 52.167969 L 12.542969 52.585938 C 12.542969 52.585938 12.050781 52.199219 11.992188 52.585938 C 11.917969 52.976562 11.363281 53.035156 11.363281 53.035156 L 10.703125 52.722656 L 10.703125 52.0625 L 9.730469 52.136719 C 9.730469 52.136719 9.65625 52.316406 9.550781 52.316406 L 9.058594 52.316406 C 8.925781 52.316406 8.296875 52.8125 8.296875 52.8125 L 7.21875 52.8125 L 6.621094 52.109375 L 5.707031 52.078125 L 5.46875 52.183594 L 5.257812 52.109375 L 4.871094 52.109375 L 4.554688 52.136719 C 4.554688 52.136719 4.449219 51.898438 4.210938 52.035156 C 3.972656 52.167969 3.867188 51.75 3.867188 51.75 L 3.554688 52.09375 L 3.554688 51.570312 L 3.3125 51.570312 L 2.96875 53.035156 L 1.277344 53.035156 L 0.964844 53.273438 L 0.679688 53.273438 L 0.398438 53.828125 L 0.230469 54.113281 L 0.230469 54.5 C 0.230469 54.5 0.785156 54.53125 0.933594 54.5 C 1.070312 54.472656 1.113281 53.976562 1.25 53.949219 C 1.382812 53.917969 1.804688 53.976562 1.804688 53.976562 L 2.566406 53.558594 L 2.429688 53.902344 L 2.042969 54.1875 L 1.445312 54.515625 L 1.367188 54.890625 L 1.277344 55.191406 C 1.277344 55.191406 1.832031 55.011719 1.488281 55.503906 C 1.488281 55.503906 1.878906 55.21875 1.878906 55.503906 C 1.878906 55.789062 1.699219 56.027344 1.699219 56.027344 L 2.117188 55.789062 L 2.117188 56.523438 L 2.25 56.867188 C 2.25 56.867188 2.597656 57.148438 2.804688 57.253906 C 3.015625 57.359375 4.09375 57.957031 4.195312 58.195312 C 4.300781 58.4375 4.617188 58.195312 4.75 58.375 C 4.886719 58.554688 4.988281 58.824219 4.988281 58.824219 C 4.988281 58.824219 5.230469 58.511719 5.542969 58.585938 C 5.855469 58.660156 6.382812 58.898438 6.484375 58.824219 C 6.589844 58.75 7.039062 58.585938 7.039062 58.585938 L 7.429688 58.480469 L 7.609375 58.167969 L 8.265625 58.167969 L 8.117188 57.777344 L 8.296875 57.539062 L 8.609375 58.03125 L 8.894531 57.40625 L 9.238281 57.539062 L 9.523438 57.644531 L 9.386719 58.195312 L 9 58.617188 L 9 58.839844 L 8.550781 59.273438 L 8.234375 59.589844 L 8.207031 59.902344 L 6.890625 59.902344 L 7.128906 60.113281 L 6.574219 60.5625 L 6.367188 60.277344 L 6.023438 60.351562 L 6.023438 60.5625 L 5.707031 60.695312 L 5.527344 60.457031 L 5.035156 60.53125 L 5.035156 60.710938 L 4.691406 60.574219 L 4.167969 60.710938 L 3.851562 60.921875 L 3.777344 60.574219 L 4.015625 60.230469 L 3.464844 60.261719 L 3.285156 60.1875 L 3.566406 59.871094 L 3.253906 59.796875 C 3.253906 59.796875 3.042969 59.976562 3.015625 60.082031 C 2.984375 60.1875 2.699219 60.53125 2.984375 60.921875 C 3.269531 61.308594 5.394531 64.046875 5.394531 64.046875 L 5.917969 64.496094 L 6.125 64.496094 L 6.203125 65.183594 L 8.144531 66.964844 L 8.699219 67.457031 L 9.613281 67.875 L 11.289062 67.875 L 11.945312 67.59375 L 12.335938 67.59375 L 12.785156 67.277344 L 12.992188 67.144531 L 13.382812 67.039062 C 13.382812 67.039062 13.621094 67.070312 13.726562 67.070312 C 13.832031 67.070312 14.144531 66.859375 14.144531 66.859375 C 14.144531 66.859375 14.640625 66.753906 14.773438 66.648438 C 14.910156 66.546875 15.089844 66.335938 15.089844 66.335938 L 15.296875 66.335938 L 15.371094 65.992188 L 15.894531 65.46875 C 15.894531 65.46875 16.179688 65.183594 16.179688 65.050781 C 16.179688 64.914062 16.179688 64.496094 16.179688 64.496094 L 16.417969 64.316406 L 16.285156 63.613281 L 16.210938 63.269531 L 16.628906 62.640625 L 16.316406 62.460938 L 16.496094 62.148438 L 16.808594 62.25 L 17.019531 62.25 L 17.226562 62.117188 L 16.914062 61.980469 L 17.199219 61.773438 L 17.585938 61.847656 C 17.585938 61.847656 18.183594 62.191406 18.289062 62.191406 C 18.394531 62.191406 19.050781 61.980469 19.050781 61.980469 L 18.664062 62.402344 L 18.214844 62.429688 L 17.617188 62.148438 L 17.226562 62.699219 L 17.464844 62.804688 L 17.390625 63.042969 L 17.363281 63.328125 L 17.675781 63.402344 L 18.09375 63.222656 L 18.410156 63.300781 L 18.230469 63.582031 L 17.886719 63.582031 L 17.390625 63.65625 L 17.316406 64.179688 L 17.210938 64.496094 L 17.945312 64.675781 L 17.316406 64.808594 L 17.390625 65.09375 L 17.675781 64.988281 L 18.171875 64.78125 L 17.78125 65.378906 L 17.542969 65.484375 L 17.511719 65.796875 L 17.480469 66.007812 L 17.332031 66.15625 L 17.421875 66.378906 L 17.390625 66.679688 L 17.8125 66.769531 L 17.511719 67.023438 L 18.066406 67.023438 L 17.734375 67.21875 L 17.796875 67.578125 L 18.214844 67.578125 L 18.246094 67.742188 L 17.945312 67.875 L 17.914062 68.070312 L 18.019531 68.234375 L 18.378906 68.234375 L 18.320312 68.488281 L 18.035156 68.488281 L 17.902344 69.269531 L 17.8125 69.523438 L 17.839844 69.65625 L 17.75 69.820312 L 17.585938 69.957031 L 17.421875 70.316406 L 17.136719 70.449219 L 17.078125 70.675781 L 17.183594 70.839844 L 16.957031 70.945312 L 16.851562 71.226562 L 17.078125 71.675781 L 16.75 71.511719 L 16.6875 71.675781 C 16.6875 71.675781 16.941406 71.78125 16.941406 71.871094 C 16.941406 71.960938 16.71875 72.15625 16.71875 72.15625 L 16.71875 72.351562 L 16.6875 72.515625 L 16.777344 72.648438 L 16.777344 72.84375 C 16.777344 72.84375 16.75 72.933594 16.6875 73.039062 C 16.628906 73.144531 16.597656 73.367188 16.597656 73.367188 L 16.824219 73.367188 L 16.988281 73.203125 L 17.210938 73.367188 L 16.957031 73.53125 L 16.734375 73.726562 L 16.839844 73.890625 L 16.839844 74.191406 L 17.363281 74.296875 L 16.777344 74.488281 L 16.882812 75.101562 C 16.882812 75.101562 17.109375 75.265625 17.183594 75.265625 C 17.273438 75.265625 17.464844 75.265625 17.464844 75.265625 L 17.273438 75.65625 L 17.078125 76.074219 L 17.496094 76.238281 L 17.527344 76.40625 C 17.527344 76.40625 17.4375 76.375 17.332031 76.40625 C 17.226562 76.433594 17.078125 76.40625 17.078125 76.40625 L 16.914062 76.417969 C 16.914062 76.417969 16.882812 76.628906 16.882812 76.761719 C 16.882812 76.898438 17.078125 77.316406 17.078125 77.316406 L 17.167969 77.570312 L 16.941406 77.570312 L 17.003906 78.214844 L 17.199219 78.214844 L 17.136719 78.574219 L 17.496094 78.574219 L 17.4375 78.769531 L 16.988281 78.769531 L 16.929688 78.933594 L 17.210938 78.933594 L 17.152344 79.320312 L 17.210938 79.621094 L 17.242188 79.875 L 17.40625 79.875 L 17.242188 80.070312 L 17.242188 80.367188 L 17.527344 80.625 L 17.585938 80.878906 L 17.527344 81.492188 L 17.855469 81.597656 L 17.601562 81.789062 L 17.796875 82.210938 L 17.765625 82.464844 L 17.601562 82.792969 L 17.886719 82.792969 L 17.796875 82.957031 L 17.691406 83.121094 L 17.855469 83.316406 L 17.992188 83.316406 L 17.796875 83.539062 L 17.707031 83.675781 L 17.839844 83.78125 L 17.871094 84.003906 L 17.734375 84.003906 L 17.765625 84.230469 L 17.992188 84.230469 L 17.992188 84.394531 L 17.765625 84.394531 L 17.902344 84.675781 L 17.839844 86.007812 L 18.035156 86.203125 L 18.003906 86.875 L 18.171875 87.265625 L 18.109375 87.714844 L 18.304688 87.9375 L 18.082031 88.269531 L 18.273438 88.460938 L 18.527344 88.65625 L 18.8125 89.496094 L 19.230469 90.4375 L 19.457031 90.691406 L 19.652344 90.691406 L 19.367188 90.945312 L 19.816406 91.394531 L 19.949219 91.679688 C 19.949219 91.679688 20.011719 92.066406 19.949219 92.15625 C 19.890625 92.246094 19.890625 92.246094 19.890625 92.246094 L 20.371094 93.144531 L 20.59375 93.445312 L 20.292969 93.578125 C 20.292969 93.578125 20.039062 93.667969 20.128906 93.714844 C 20.21875 93.773438 20.457031 94 20.457031 94 L 20.714844 93.863281 L 20.816406 94.148438 L 21.117188 94.148438 L 21.28125 94.597656 L 21.371094 94.957031 L 21.65625 95.148438 L 21.550781 95.375 L 21.6875 95.761719 L 21.820312 95.988281 L 21.878906 96.289062 L 21.878906 96.542969 L 21.746094 96.824219 C 21.746094 96.824219 22.328125 97.410156 22.417969 97.664062 C 22.507812 97.917969 22.390625 98.410156 22.390625 98.410156 L 22.71875 98.410156 C 22.71875 98.410156 22.808594 98.605469 22.71875 98.605469 C 22.628906 98.605469 22.628906 98.605469 22.628906 98.605469 C 22.628906 98.605469 22.597656 98.890625 22.597656 98.964844 C 22.597656 99.039062 22.65625 99.355469 22.65625 99.355469 L 22.597656 99.609375 L 22.3125 99.804688 L 22.570312 99.996094 L 22.867188 100.582031 L 22.808594 101.644531 L 22.972656 101.644531 L 23.0625 101.808594 C 23.0625 101.808594 23.167969 102.316406 23.195312 102.390625 C 23.226562 102.480469 23.527344 103.453125 23.527344 103.453125 L 23.808594 103.960938 L 24.199219 105.609375 L 24.332031 106.117188 L 24.691406 106.25 L 24.855469 106.445312 L 25.082031 106.445312 L 24.855469 106.699219 L 25.140625 107 L 25.53125 107.285156 L 25.753906 107.539062 L 26.007812 107.703125 L 26.097656 108.210938 C 26.097656 108.210938 26.160156 108.34375 26.160156 108.496094 C 26.160156 108.628906 26.160156 108.792969 26.160156 108.792969 L 26.324219 108.792969 L 26.652344 109.242188 L 26.789062 109.242188 L 26.789062 109.917969 L 27.085938 109.917969 L 26.800781 110.171875 L 27.160156 110.917969 L 27.222656 111.472656 L 27.3125 111.832031 L 27.355469 112.011719 L 27.519531 111.785156 L 27.714844 112.011719 L 27.625 112.207031 L 27.402344 112.308594 L 27.402344 112.535156 L 27.59375 112.820312 L 27.925781 113.042969 L 27.925781 113.371094 C 27.925781 113.371094 28.015625 113.820312 28.015625 113.925781 C 28.015625 114.03125 28.269531 114.34375 28.269531 114.34375 L 28.359375 114.148438 L 28.582031 114.34375 L 28.523438 114.597656 L 28.296875 114.597656 L 28.359375 114.929688 C 28.359375 114.929688 28.269531 115.183594 28.449219 115.226562 C 28.613281 115.289062 28.867188 115.527344 28.867188 115.527344 L 29.0625 115.8125 L 29.03125 116.199219 L 29.0625 116.527344 L 29.121094 116.664062 L 29.210938 117.140625 L 29.433594 117.140625 L 29.570312 117.335938 L 29.34375 117.335938 L 28.925781 117.230469 L 28.820312 116.527344 L 28.761719 115.976562 L 28.628906 115.617188 L 28.65625 117.171875 L 28.792969 117.785156 L 29.078125 118.398438 L 29.179688 118.789062 C 29.179688 118.789062 29.34375 118.894531 29.375 119.117188 C 29.40625 119.339844 29.433594 119.597656 29.433594 119.597656 L 29.496094 119.851562 L 29.78125 119.65625 L 29.972656 119.65625 L 30.035156 119.851562 L 29.734375 120.042969 L 29.703125 120.269531 L 30.183594 120.269531 L 30.152344 120.464844 L 30.019531 120.6875 L 30.4375 121.273438 L 30.886719 121.691406 C 30.886719 121.691406 31.1875 121.976562 31.335938 122.140625 C 31.46875 122.304688 31.8125 122.8125 31.8125 122.8125 C 31.8125 122.8125 31.949219 123.007812 32.171875 123.171875 C 32.398438 123.335938 32.785156 123.53125 32.785156 123.53125 L 33.308594 123.695312 C 33.308594 123.695312 33.757812 123.605469 33.832031 123.695312 C 33.921875 123.785156 34.058594 123.664062 34.132812 123.695312 C 34.222656 123.726562 34.328125 123.5 34.328125 123.5 L 34.746094 123.472656 L 35.046875 123.277344 L 35.238281 122.859375 C 35.238281 122.859375 35.523438 122.859375 35.597656 122.828125 C 35.6875 122.796875 36.078125 122.691406 36.078125 122.691406 L 36.4375 122.183594 L 36.4375 121.824219 L 36.527344 121.570312 C 36.527344 121.570312 36.585938 121.347656 36.660156 121.273438 C 36.75 121.183594 36.796875 121.046875 36.796875 121.046875 L 36.824219 120.042969 L 37.246094 119.789062 L 37.542969 119.820312 L 37.769531 119.535156 C 37.992188 119.371094 38.605469 119.238281 38.710938 119.238281 C 38.816406 119.238281 38.875 119.207031 39.011719 119.207031 C 39.144531 119.207031 39.175781 119.074219 39.175781 119.074219 L 39.652344 118.90625 L 40.207031 118.847656 L 40.507812 118.847656 L 40.894531 118.90625 L 41.222656 118.90625 L 41.507812 119.011719 L 41.734375 119.011719 L 42.285156 119.339844 L 42.316406 119.058594 L 42.015625 118.96875 L 41.957031 118.683594 L 41.671875 118.714844 L 41.164062 118.714844 L 40.878906 118.652344 L 40.355469 118.429688 L 40.101562 118.070312 L 40.074219 117.621094 L 40.175781 117.335938 L 40.789062 116.5 L 41.179688 115.976562 L 41.507812 115.644531 L 41.761719 115.480469 C 41.761719 115.480469 41.660156 115.378906 41.660156 115.257812 C 41.660156 115.136719 41.792969 114.839844 41.792969 114.839844 L 41.988281 114.417969 L 42.375 114.390625 L 43.019531 114.390625 L 43.050781 114.164062 L 43.769531 114.253906 L 43.960938 114.253906 L 44.214844 114.316406 L 44.1875 114.480469 L 44.382812 114.226562 L 44.1875 109.316406 C 44.1875 109.316406 44.050781 108.898438 44.050781 108.808594 C 44.050781 108.71875 44.050781 108.71875 44.082031 108.523438 C 44.113281 108.332031 44.140625 108 44.140625 107.910156 C 44.140625 107.820312 44.472656 107.042969 44.472656 107.042969 L 44.5 106.820312 L 44.335938 106.625 L 44.335938 106.429688 L 44.695312 106.625 L 44.726562 106.175781 L 45.203125 105.789062 L 45.59375 105.308594 L 45.503906 104.890625 L 45.890625 104.636719 L 45.980469 104.382812 L 46.117188 103.933594 L 46.28125 103.601562 L 46.25 102.707031 L 46.355469 102.226562 L 46.445312 101.746094 L 46.535156 101.375 L 46.28125 100.789062 L 45.832031 100.460938 L 45.773438 99.878906 L 45.683594 99.488281 L 45.683594 99.011719 L 45.847656 99.011719 L 45.953125 99.339844 L 45.953125 99.59375 L 46.058594 99.878906 L 46.191406 100.265625 L 46.324219 100.597656 L 46.519531 100.597656 C 46.519531 100.597656 46.460938 100.402344 46.429688 100.3125 C 46.402344 100.222656 46.339844 99.804688 46.339844 99.804688 L 46.28125 99.355469 L 46.222656 98.832031 L 46.160156 98.441406 C 46.160156 98.441406 46.101562 98.082031 46.101562 97.960938 C 46.101562 97.84375 46.042969 97.605469 46.042969 97.515625 C 46.042969 97.425781 45.9375 97.183594 45.9375 97.183594 L 46.160156 96.675781 C 46.160156 96.675781 46.296875 96.617188 46.296875 96.453125 C 46.296875 96.289062 46.265625 95.808594 46.296875 95.734375 C 46.324219 95.644531 46.402344 95.480469 46.296875 95.316406 C 46.191406 95.148438 45.996094 94.417969 45.996094 94.417969 L 45.890625 93.714844 L 46.117188 92.875 L 46.671875 91.8125 L 46.96875 91.425781 L 47.269531 90.675781 L 47.792969 90.675781 L 48.152344 90.394531 L 48.871094 90.332031 L 48.960938 91.082031 L 49.09375 90.886719 L 49.152344 91.140625 L 49.289062 91.082031 L 49.347656 90.839844 L 49.421875 90.558594 L 49.542969 90.917969 L 49.738281 90.886719 L 49.738281 90.558594 L 50.214844 90.226562 L 50.5 89.839844 L 50.632812 89.511719 L 50.800781 89.34375 L 50.992188 88.820312 L 51.128906 88.730469 L 51.652344 88.671875 C 51.652344 88.671875 51.785156 88.730469 51.847656 88.640625 C 51.90625 88.550781 51.847656 88.417969 51.847656 88.417969 L 52.175781 88.386719 L 52.59375 88.671875 L 52.757812 88.539062 L 52.757812 88.792969 L 52.984375 88.820312 L 53.433594 88.71875 L 53.851562 88.460938 L 54.074219 88.328125 L 54.972656 87.96875 L 55.109375 87.714844 L 55.109375 86.996094 L 55.003906 86.742188 L 54.972656 86.351562 L 55.257812 86.1875 L 55.257812 86.890625 L 55.542969 86.441406 L 55.542969 86.160156 L 55.257812 85.875 L 55.734375 85.648438 L 56.261719 85.203125 L 56.679688 84.917969 L 57.039062 84.527344 L 57.875 84.140625 C 57.875 84.140625 58.203125 84.035156 58.398438 83.972656 C 58.59375 83.914062 58.816406 83.839844 58.816406 83.839844 L 58.816406 83.617188 L 59.238281 83.390625 C 59.238281 83.390625 59.34375 83.105469 59.402344 83.03125 C 59.460938 82.941406 60.269531 82.164062 60.882812 81.804688 C 61.496094 81.445312 62.394531 80.804688 62.394531 80.804688 L 62.679688 80.578125 L 62.679688 80.101562 C 62.679688 80.101562 63.574219 79.710938 63.785156 79.515625 C 64.007812 79.320312 64.070312 78.960938 64.070312 78.960938 L 64.324219 78.605469 L 64.546875 78.320312 L 65.058594 77.902344 L 65.160156 77.675781 L 65.160156 77.453125 L 65.609375 77.09375 C 65.609375 77.09375 66.058594 76.285156 66.117188 76.195312 C 66.179688 76.105469 66.957031 75.671875 66.957031 75.671875 L 67.511719 75.222656 L 67.960938 75 L 68.316406 74.832031 L 69.1875 74.503906 L 70.21875 74.085938 C 70.21875 74.085938 70.863281 73.996094 71.117188 73.890625 C 71.371094 73.785156 71.730469 73.667969 71.835938 73.441406 C 71.9375 73.21875 71.921875 72.632812 72.164062 72.632812 C 72.417969 72.632812 72.746094 72.542969 72.835938 72.5 C 72.925781 72.441406 73.253906 72.214844 73.253906 72.214844 L 73.417969 71.855469 L 73.417969 71.558594 L 73.226562 71.304688 L 74.316406 70.601562 L 74.570312 70.089844 C 74.570312 70.089844 74.378906 70.226562 74.273438 70.253906 C 74.167969 70.285156 73.945312 70.421875 73.945312 70.421875 L 73.585938 70.480469 L 73.644531 70.089844 L 74.09375 70.03125 C 74.09375 70.03125 74.316406 70.03125 74.289062 69.867188 C 74.257812 69.703125 74.035156 69.449219 73.988281 69.34375 C 73.929688 69.238281 73.765625 68.820312 73.765625 68.820312 L 73.929688 67.875 C 73.929688 67.875 74.289062 67.203125 74.601562 67.070312 C 74.902344 66.933594 75.5 66.710938 75.5 66.710938 L 76.082031 66.769531 L 76.695312 66.277344 L 77.398438 66.082031 L 77.640625 65.648438 L 77.878906 65.46875 C 77.878906 65.46875 78.058594 65.078125 78.191406 65.019531 C 78.328125 64.945312 78.535156 64.78125 78.535156 64.78125 L 78.714844 64.359375 L 78.984375 64.421875 L 78.820312 63.703125 L 79.089844 63.507812 L 79.210938 64.226562 L 79.074219 64.75 L 79.046875 65.09375 L 79.226562 65.304688 L 79.226562 65.542969 L 79.507812 65.230469 L 79.75 65.019531 L 80.136719 65.257812 L 80.316406 65.050781 L 80.527344 64.152344 L 81.066406 64.195312 C 81.066406 64.195312 81.214844 63.761719 81.347656 63.808594 C 81.484375 63.835938 81.589844 63.554688 81.589844 63.554688 L 81.8125 63.449219 L 82.15625 63.476562 L 82.277344 63.613281 L 82.410156 63.835938 L 82.441406 63.925781 C 82.472656 63.734375 82.023438 62.910156 82.1875 62.804688 C 82.1875 62.804688 82.203125 62.402344 82.140625 62.339844 C 82.082031 62.28125 81.828125 61.757812 81.828125 61.757812 L 81.722656 61.324219 L 81.769531 60.996094 L 81.78125 60.816406 L 81.46875 60.335938 L 81.46875 59.949219 L 81.902344 59.394531 L 81.589844 59.273438 L 81.230469 59.289062 L 81.125 59.425781 L 80.945312 59.46875 L 80.886719 58.765625 L 81.019531 58.453125 L 81.09375 58.316406 L 81.019531 58.152344 L 80.601562 57.988281 L 80.390625 57.777344 L 80.273438 57.898438 L 80.257812 56.789062 L 80.632812 56.730469 L 80.839844 56.28125 L 81.035156 56.027344 L 81.050781 55.699219 L 80.945312 55.339844 L 80.824219 55.027344 L 80.644531 54.90625 L 80.167969 54.859375 L 79.75 54.726562 L 79.253906 54.726562 L 79.253906 54.53125 L 78.878906 54.234375 L 78.550781 54.097656 L 78.445312 53.796875 C 78.445312 53.796875 78.402344 53.695312 78.34375 53.695312 C 78.28125 53.695312 78.074219 53.441406 78.074219 53.441406 C 78.074219 53.441406 78.191406 53.261719 78.253906 53.199219 C 78.3125 53.140625 78.445312 52.871094 78.445312 52.871094 L 78.433594 52.199219 L 79.046875 52.214844 L 79.058594 52.511719 L 79.390625 52.558594 L 79.226562 52.363281 L 79.238281 52.183594 L 79.507812 52.226562 L 79.570312 51.957031 L 79.777344 51.945312 L 79.761719 51.332031 L 80.988281 51.269531 L 80.988281 51.152344 L 81.527344 51.152344 L 81.664062 50.972656 L 81.679688 50.730469 L 81.722656 50.433594 L 81.511719 50.386719 L 81.46875 50.628906 L 81.347656 50.671875 L 81.109375 50.402344 L 80.796875 49.714844 C 80.796875 49.714844 80.675781 50.359375 80.105469 50.089844 C 79.539062 49.820312 79.570312 49.609375 79.570312 49.609375 L 79.507812 49.175781 L 78.941406 48.863281 L 78.3125 48.847656 L 78.328125 48.097656 L 78.535156 47.859375 L 78.523438 47.695312 L 78.507812 47.394531 L 79.046875 47.023438 L 79.285156 46.8125 L 79.328125 46.558594 L 79.402344 46.453125 L 79.734375 46.40625 L 79.6875 46.09375 L 79.390625 46.050781 L 79.253906 45.882812 L 79.121094 45.628906 L 79.105469 45.511719 L 79.300781 45.179688 L 79.597656 45.71875 L 79.867188 45.765625 L 79.867188 46.019531 L 80.226562 46.003906 L 80.183594 46.199219 L 80.496094 46.242188 L 80.542969 46.574219 L 80.4375 46.738281 L 80.363281 46.917969 L 80.660156 46.917969 L 80.871094 46.722656 L 81.167969 46.648438 L 81.335938 46.78125 L 81.707031 46.796875 L 81.410156 46.320312 L 81.199219 46.0625 L 81.304688 45.988281 L 81.722656 45.972656 L 81.722656 46.152344 L 81.976562 46.257812 L 82.082031 46.378906 L 82.082031 47.007812 C 82.082031 47.007812 82.816406 47.679688 83.007812 47.679688 C 83.203125 47.679688 83.757812 47.726562 83.757812 47.726562 L 83.921875 47.457031 L 83.921875 47.277344 L 84.101562 47.023438 L 84.3125 46.828125 L 84.699219 46.992188 L 84.773438 47.378906 L 84.714844 47.636719 L 84.96875 47.875 L 84.894531 48.1875 L 84.835938 48.488281 L 84.953125 48.816406 L 84.894531 49.878906 L 84.941406 50.3125 L 85.207031 50.449219 C 85.207031 50.449219 85.746094 50.460938 85.808594 50.507812 C 85.867188 50.550781 86.195312 50.761719 86.195312 50.761719 L 86.644531 50.835938 L 87.019531 50.941406 L 89.996094 51 C 89.996094 51 90.535156 51.179688 90.625 51.015625 C 90.730469 50.851562 90.894531 50.851562 91.058594 50.941406 C 91.222656 51.015625 91.222656 51.105469 91.449219 51.046875 C 91.6875 50.984375 91.808594 51.121094 91.808594 51.121094 L 92.40625 51.105469 L 92.421875 50.972656 L 94.140625 50.957031 L 94.515625 51.285156 L 95.113281 51.332031 L 95.21875 51.449219 L 95.203125 51.808594 L 95.589844 51.855469 L 95.589844 52.300781 L 95.234375 52.289062 L 94.621094 51.972656 L 94.574219 52.363281 L 94.785156 52.527344 L 94.84375 52.707031 L 94.769531 52.871094 L 94.53125 53.082031 L 94.484375 53.679688 L 94.007812 54.277344 L 93.839844 54.488281 L 93.601562 54.277344 L 93.421875 54.382812 L 93.378906 54.652344 L 93.273438 54.757812 L 93.273438 55.429688 L 92.882812 55.117188 L 92.71875 55.101562 L 92.660156 55.292969 L 92.480469 55.308594 L 92.300781 55.070312 L 92.242188 55.265625 L 92.121094 55.472656 L 91.910156 55.640625 L 91.402344 55.625 L 91.207031 55.640625 L 91.3125 55.996094 L 90.773438 56.101562 L 90.894531 56.671875 L 90.59375 56.96875 L 90.550781 57.285156 L 90.847656 57.390625 L 90.789062 57.839844 L 91.101562 58.167969 L 91.089844 58.496094 L 91.074219 58.691406 L 91.253906 58.945312 L 91.238281 59.632812 C 91.238281 59.632812 91.476562 59.796875 91.492188 59.738281 C 91.507812 59.679688 91.492188 59.035156 91.492188 59.035156 L 91.597656 58.871094 C 91.597656 58.871094 91.851562 58.796875 91.867188 58.945312 C 91.882812 59.109375 91.925781 59.199219 91.925781 59.199219 L 91.972656 59.871094 C 91.972656 59.871094 92.015625 59.976562 92.242188 60.050781 C 92.480469 60.128906 92.660156 60.21875 92.792969 60.039062 C 92.929688 59.859375 92.988281 59.902344 93.003906 59.664062 C 93.019531 59.425781 92.867188 59.066406 92.867188 59.019531 C 92.867188 58.960938 92.855469 58.75 92.855469 58.75 L 93.09375 58.4375 L 93.304688 58.109375 L 93.511719 58.09375 L 93.4375 57.761719 L 93.363281 57.492188 L 93.378906 56.957031 C 93.378906 56.957031 93.585938 56.910156 93.617188 57.195312 C 93.632812 57.464844 93.855469 57.300781 93.855469 57.300781 L 94.109375 57.089844 L 94.304688 57.03125 L 94.425781 57.136719 L 94.542969 57 L 94.722656 56.746094 L 94.964844 56.789062 L 94.964844 57.164062 L 94.976562 57.417969 L 94.917969 58.03125 L 95.246094 58.273438 L 95.203125 59.617188 L 95.308594 59.917969 L 95.414062 60.292969 L 96.054688 61.699219 L 96.234375 62.238281 Z M 96.324219 63.402344 "></path></g></g></svg>