<svg xmlns="http://www.w3.org/2000/svg" xmlns:xlink="http://www.w3.org/1999/xlink" width="151" zoomAndPan="magnify" viewBox="0 0 113.25 101.999999" height="136" preserveAspectRatio="xMidYMid meet"><defs><clipPath id="d434d1d240"><path d="M 6 45 L 111.761719 45 L 111.761719 100.917969 L 6 100.917969 Z M 6 45 "></path></clipPath><clipPath id="4cf5f3b72b"><path d="M 0 0.335938 L 106 0.335938 L 106 56 L 0 56 Z M 0 0.335938 "></path></clipPath></defs><g id="410609ab73"><path style=" stroke:none;fill-rule:nonzero;fill:#051052;fill-opacity:1;" d="M 85.363281 39.355469 C 85.363281 39.867188 85.3125 40.371094 85.214844 40.875 C 85.113281 41.375 84.964844 41.863281 84.769531 42.335938 C 84.574219 42.808594 84.332031 43.257812 84.050781 43.683594 C 83.765625 44.109375 83.441406 44.503906 83.082031 44.863281 C 82.71875 45.226562 82.324219 45.550781 81.898438 45.832031 C 81.472656 46.117188 81.023438 46.359375 80.550781 46.554688 C 80.078125 46.75 79.59375 46.898438 79.089844 46.996094 C 78.589844 47.097656 78.082031 47.148438 77.570312 47.148438 C 77.058594 47.148438 76.550781 47.097656 76.050781 46.996094 C 75.546875 46.898438 75.058594 46.75 74.585938 46.554688 C 74.113281 46.359375 73.664062 46.117188 73.242188 45.832031 C 72.816406 45.550781 72.421875 45.226562 72.058594 44.863281 C 71.699219 44.503906 71.375 44.109375 71.089844 43.683594 C 70.804688 43.257812 70.566406 42.808594 70.371094 42.335938 C 70.175781 41.863281 70.027344 41.375 69.925781 40.875 C 69.828125 40.371094 69.777344 39.867188 69.777344 39.355469 C 69.777344 38.84375 69.828125 38.335938 69.925781 37.832031 C 70.027344 37.332031 70.175781 36.84375 70.371094 36.371094 C 70.566406 35.898438 70.804688 35.449219 71.089844 35.023438 C 71.375 34.597656 71.699219 34.207031 72.058594 33.84375 C 72.421875 33.480469 72.816406 33.160156 73.242188 32.875 C 73.664062 32.589844 74.113281 32.351562 74.585938 32.15625 C 75.058594 31.957031 75.546875 31.8125 76.050781 31.710938 C 76.550781 31.609375 77.058594 31.5625 77.570312 31.5625 C 78.082031 31.5625 78.589844 31.609375 79.089844 31.710938 C 79.59375 31.8125 80.078125 31.957031 80.550781 32.15625 C 81.023438 32.351562 81.472656 32.589844 81.898438 32.875 C 82.324219 33.160156 82.71875 33.480469 83.082031 33.84375 C 83.441406 34.207031 83.765625 34.597656 84.050781 35.023438 C 84.332031 35.449219 84.574219 35.898438 84.769531 36.371094 C 84.964844 36.84375 85.113281 37.332031 85.214844 37.832031 C 85.3125 38.335938 85.363281 38.84375 85.363281 39.355469 Z M 85.363281 39.355469 "></path><path style=" stroke:none;fill-rule:nonzero;fill:#051052;fill-opacity:1;" d="M 94.023438 66.140625 L 94.023438 61.371094 C 94.023438 55.191406 90.769531 49.796875 85.933594 46.859375 C 83.871094 49.15625 80.890625 50.609375 77.570312 50.609375 C 75.828125 50.609375 74.1875 50.203125 72.71875 49.492188 C 77.199219 53.699219 80.222656 59.558594 80.890625 66.140625 Z M 94.023438 66.140625 "></path><path style=" stroke:none;fill-rule:nonzero;fill:#051052;fill-opacity:1;" d="M 42.070312 39.355469 C 42.070312 39.867188 42.019531 40.371094 41.917969 40.875 C 41.820312 41.375 41.671875 41.863281 41.476562 42.335938 C 41.28125 42.808594 41.039062 43.257812 40.757812 43.683594 C 40.472656 44.109375 40.148438 44.503906 39.785156 44.863281 C 39.425781 45.226562 39.03125 45.550781 38.605469 45.832031 C 38.179688 46.117188 37.730469 46.359375 37.257812 46.554688 C 36.785156 46.75 36.296875 46.898438 35.796875 46.996094 C 35.296875 47.097656 34.789062 47.148438 34.277344 47.148438 C 33.765625 47.148438 33.257812 47.097656 32.757812 46.996094 C 32.253906 46.898438 31.765625 46.75 31.292969 46.554688 C 30.820312 46.359375 30.371094 46.117188 29.945312 45.832031 C 29.523438 45.550781 29.128906 45.226562 28.765625 44.863281 C 28.402344 44.503906 28.082031 44.109375 27.796875 43.683594 C 27.511719 43.257812 27.273438 42.808594 27.078125 42.335938 C 26.882812 41.863281 26.734375 41.375 26.632812 40.875 C 26.535156 40.371094 26.484375 39.867188 26.484375 39.355469 C 26.484375 38.84375 26.535156 38.335938 26.632812 37.832031 C 26.734375 37.332031 26.882812 36.84375 27.078125 36.371094 C 27.273438 35.898438 27.511719 35.449219 27.796875 35.023438 C 28.082031 34.597656 28.402344 34.207031 28.765625 33.84375 C 29.128906 33.480469 29.523438 33.160156 29.945312 32.875 C 30.371094 32.589844 30.820312 32.351562 31.292969 32.15625 C 31.765625 31.957031 32.253906 31.8125 32.757812 31.710938 C 33.257812 31.609375 33.765625 31.5625 34.277344 31.5625 C 34.789062 31.5625 35.296875 31.609375 35.796875 31.710938 C 36.296875 31.8125 36.785156 31.957031 37.257812 32.15625 C 37.730469 32.351562 38.179688 32.589844 38.605469 32.875 C 39.03125 33.160156 39.425781 33.480469 39.785156 33.84375 C 40.148438 34.207031 40.472656 34.597656 40.757812 35.023438 C 41.039062 35.449219 41.28125 35.898438 41.476562 36.371094 C 41.671875 36.84375 41.820312 37.332031 41.917969 37.832031 C 42.019531 38.335938 42.070312 38.84375 42.070312 39.355469 Z M 42.070312 39.355469 "></path><path style=" stroke:none;fill-rule:nonzero;fill:#051052;fill-opacity:1;" d="M 17.824219 61.371094 L 17.824219 66.140625 L 30.957031 66.140625 C 31.625 59.558594 34.644531 53.699219 39.125 49.492188 C 37.65625 50.203125 36.015625 50.609375 34.277344 50.609375 C 30.953125 50.609375 27.972656 49.15625 25.910156 46.859375 C 21.078125 49.796875 17.824219 55.191406 17.824219 61.371094 Z M 17.824219 61.371094 "></path><path style=" stroke:none;fill-rule:nonzero;fill:#051052;fill-opacity:1;" d="M 66.3125 38.054688 C 66.3125 38.738281 66.246094 39.414062 66.113281 40.082031 C 65.980469 40.75 65.785156 41.402344 65.523438 42.03125 C 65.261719 42.660156 64.941406 43.261719 64.5625 43.828125 C 64.183594 44.394531 63.753906 44.921875 63.269531 45.402344 C 62.789062 45.886719 62.261719 46.316406 61.695312 46.695312 C 61.128906 47.074219 60.53125 47.394531 59.898438 47.65625 C 59.269531 47.917969 58.621094 48.113281 57.949219 48.246094 C 57.28125 48.378906 56.605469 48.445312 55.921875 48.445312 C 55.242188 48.445312 54.566406 48.378906 53.894531 48.246094 C 53.226562 48.113281 52.578125 47.917969 51.945312 47.65625 C 51.316406 47.394531 50.71875 47.074219 50.152344 46.695312 C 49.582031 46.316406 49.058594 45.886719 48.574219 45.402344 C 48.09375 44.921875 47.664062 44.394531 47.285156 43.828125 C 46.90625 43.261719 46.585938 42.660156 46.324219 42.03125 C 46.0625 41.402344 45.867188 40.75 45.734375 40.082031 C 45.597656 39.414062 45.53125 38.738281 45.53125 38.054688 C 45.53125 37.375 45.597656 36.699219 45.734375 36.027344 C 45.867188 35.359375 46.0625 34.710938 46.324219 34.078125 C 46.585938 33.449219 46.90625 32.851562 47.285156 32.28125 C 47.664062 31.714844 48.09375 31.191406 48.574219 30.707031 C 49.058594 30.226562 49.582031 29.796875 50.152344 29.417969 C 50.71875 29.035156 51.316406 28.71875 51.945312 28.457031 C 52.578125 28.195312 53.226562 27.996094 53.894531 27.863281 C 54.566406 27.730469 55.242188 27.664062 55.921875 27.664062 C 56.605469 27.664062 57.28125 27.730469 57.949219 27.863281 C 58.621094 27.996094 59.269531 28.195312 59.898438 28.457031 C 60.53125 28.71875 61.128906 29.035156 61.695312 29.417969 C 62.261719 29.796875 62.789062 30.226562 63.269531 30.707031 C 63.753906 31.191406 64.183594 31.714844 64.5625 32.28125 C 64.941406 32.851562 65.261719 33.449219 65.523438 34.078125 C 65.785156 34.710938 65.980469 35.359375 66.113281 36.027344 C 66.246094 36.699219 66.3125 37.375 66.3125 38.054688 Z M 66.3125 38.054688 "></path><path style=" stroke:none;fill-rule:nonzero;fill:#051052;fill-opacity:1;" d="M 77.570312 68.910156 C 77.570312 59.832031 72.480469 52.003906 65.128906 48.378906 C 62.679688 50.566406 59.457031 51.910156 55.921875 51.910156 C 52.386719 51.910156 49.167969 50.566406 46.71875 48.378906 C 39.367188 52.003906 34.277344 59.832031 34.277344 68.910156 L 34.277344 74.800781 L 77.570312 74.800781 Z M 77.570312 68.910156 "></path><g clip-rule="nonzero" clip-path="url(#d434d1d240)"><path style=" stroke:none;fill-rule:nonzero;fill:#051052;fill-opacity:1;" d="M 110.964844 52.945312 L 105.484375 46.019531 C 105.148438 45.589844 104.625 45.34375 104.082031 45.363281 C 103.535156 45.375 103.03125 45.644531 102.714844 46.089844 L 97.804688 53.015625 C 97.25 53.796875 97.433594 54.878906 98.214844 55.433594 C 98.519531 55.648438 98.871094 55.75 99.214844 55.75 C 99.757812 55.75 100.292969 55.496094 100.628906 55.019531 L 102.640625 52.1875 C 101.773438 77.214844 81.15625 97.3125 55.921875 97.3125 C 33.097656 97.3125 14.050781 80.867188 9.980469 59.203125 L 6.460938 59.203125 C 10.558594 82.816406 31.136719 100.777344 55.921875 100.777344 C 83.050781 100.777344 105.140625 79.265625 106.097656 52.375 L 108.25 55.09375 C 108.84375 55.84375 109.929688 55.972656 110.683594 55.378906 C 111.433594 54.785156 111.558594 53.695312 110.964844 52.945312 Z M 110.964844 52.945312 "></path></g><g clip-rule="nonzero" clip-path="url(#4cf5f3b72b)"><path style=" stroke:none;fill-rule:nonzero;fill:#051052;fill-opacity:1;" d="M 7.152344 55.75 C 7.679688 55.75 8.179688 55.507812 8.507812 55.09375 L 13.988281 48.167969 C 14.582031 47.417969 14.453125 46.328125 13.703125 45.734375 C 12.953125 45.140625 11.863281 45.269531 11.273438 46.019531 L 9.214844 48.617188 C 10.238281 23.730469 30.792969 3.800781 55.921875 3.800781 C 78.75 3.800781 97.796875 20.246094 101.863281 41.910156 L 105.386719 41.910156 C 101.285156 18.292969 80.710938 0.335938 55.921875 0.335938 C 28.695312 0.335938 6.546875 22.003906 5.742188 49.039062 L 3.652344 46.089844 C 3.097656 45.308594 2.019531 45.125 1.238281 45.679688 C 0.457031 46.234375 0.273438 47.3125 0.828125 48.09375 L 5.738281 55.019531 C 6.054688 55.464844 6.558594 55.734375 7.105469 55.75 C 7.121094 55.75 7.136719 55.75 7.152344 55.75 Z M 7.152344 55.75 "></path></g></g></svg>