<svg xmlns="http://www.w3.org/2000/svg" xmlns:xlink="http://www.w3.org/1999/xlink" width="90" zoomAndPan="magnify" viewBox="0 0 67.5 67.499996" height="90" preserveAspectRatio="xMidYMid meet" version="1.2"><defs><clipPath id="d26118ee5e"><path d="M 7.289062 7.289062 L 59.402344 7.289062 L 59.402344 59 L 7.289062 59 Z M 7.289062 7.289062 "/></clipPath></defs><g id="2ea393b1ab"><path style=" stroke:none;fill-rule:nonzero;fill:#051052;fill-opacity:1;" d="M 38.957031 14.773438 C 46.136719 14.773438 51.972656 20.617188 51.972656 27.800781 C 51.972656 34.984375 46.136719 40.832031 38.957031 40.832031 C 31.777344 40.832031 25.941406 34.984375 25.941406 27.800781 C 25.941406 20.617188 31.777344 14.773438 38.957031 14.773438 Z M 38.957031 41.652344 C 46.585938 41.652344 52.796875 35.4375 52.796875 27.800781 C 52.796875 20.167969 46.585938 13.953125 38.957031 13.953125 C 31.328125 13.953125 25.121094 20.167969 25.121094 27.800781 C 25.121094 35.4375 31.328125 41.652344 38.957031 41.652344 "/><g clip-rule="nonzero" clip-path="url(#d26118ee5e)"><path style=" stroke:none;fill-rule:nonzero;fill:#051052;fill-opacity:1;" d="M 10.355469 51.601562 L 19.207031 42.75 L 23.847656 47.390625 L 14.996094 56.242188 C 13.71875 57.519531 11.636719 57.519531 10.355469 56.242188 C 9.078125 54.960938 9.078125 52.878906 10.355469 51.601562 Z M 21.195312 37.910156 C 22.976562 41.023438 25.550781 43.632812 28.640625 45.449219 L 26.433594 47.65625 L 18.941406 40.164062 Z M 38.953125 8.992188 C 49.324219 8.992188 57.761719 17.429688 57.761719 27.800781 C 57.761719 38.171875 49.324219 46.605469 38.953125 46.605469 C 28.585938 46.605469 20.15625 38.171875 20.15625 27.800781 C 20.15625 17.429688 28.585938 8.992188 38.953125 8.992188 Z M 9.199219 57.398438 C 11.113281 59.316406 14.234375 59.320312 16.15625 57.398438 L 25.007812 48.550781 L 25.851562 49.394531 C 26.171875 49.714844 26.691406 49.714844 27.007812 49.394531 L 30.15625 46.253906 C 32.820312 47.527344 35.804688 48.25 38.953125 48.25 C 50.226562 48.25 59.402344 39.074219 59.402344 27.800781 C 59.402344 16.527344 50.226562 7.351562 38.953125 7.351562 C 27.683594 7.351562 18.515625 16.527344 18.515625 27.800781 C 18.515625 30.863281 19.195312 33.769531 20.40625 36.378906 L 17.199219 39.589844 C 16.882812 39.902344 16.882812 40.425781 17.199219 40.742188 L 18.046875 41.589844 L 9.199219 50.441406 C 7.277344 52.355469 7.277344 55.480469 9.199219 57.398438 "/></g><path style=" stroke:none;fill-rule:nonzero;fill:#051052;fill-opacity:1;" d="M 38.953125 23.496094 C 42.691406 23.496094 45.886719 26.835938 46.726562 27.796875 C 45.886719 28.753906 42.695312 32.105469 38.953125 32.105469 C 35.230469 32.105469 32.03125 28.753906 31.191406 27.796875 C 32.03125 26.835938 35.230469 23.496094 38.953125 23.496094 Z M 38.953125 32.925781 C 43.691406 32.925781 47.425781 28.246094 47.582031 28.046875 C 47.703125 27.894531 47.703125 27.691406 47.582031 27.539062 C 47.425781 27.339844 43.691406 22.675781 38.953125 22.675781 C 34.226562 22.675781 30.488281 27.339844 30.332031 27.539062 C 30.214844 27.691406 30.214844 27.894531 30.332031 28.046875 C 30.488281 28.246094 34.226562 32.925781 38.953125 32.925781 "/><path style=" stroke:none;fill-rule:nonzero;fill:#051052;fill-opacity:1;" d="M 38.953125 25.761719 C 40.085938 25.761719 41.007812 26.675781 41.007812 27.800781 C 41.007812 28.929688 40.085938 29.84375 38.953125 29.84375 C 37.824219 29.84375 36.914062 28.929688 36.914062 27.800781 C 36.914062 26.675781 37.824219 25.761719 38.953125 25.761719 Z M 38.953125 30.664062 C 40.535156 30.664062 41.824219 29.382812 41.824219 27.800781 C 41.824219 26.222656 40.535156 24.9375 38.953125 24.9375 C 37.375 24.9375 36.09375 26.222656 36.09375 27.800781 C 36.09375 29.382812 37.375 30.664062 38.953125 30.664062 "/></g></svg>